<svg width="32" height="32" viewBox="0 0 32 32" fill="none" xmlns="http://www.w3.org/2000/svg">
<path d="M15.6 31.2C24.2156 31.2 31.2 24.2156 31.2 15.6C31.2 6.98436 24.2156 0 15.6 0C6.98436 0 0 6.98436 0 15.6C0 24.2156 6.98436 31.2 15.6 31.2Z" fill="#61B8EE"/>
<path d="M16.2998 3.29996C16.9998 3.79996 17.6998 4.39996 18.1998 5.09996C18.7998 5.89996 19.2998 6.79996 19.4998 7.79996C19.4998 7.89996 19.4999 7.89995 19.5999 7.99995C19.6999 7.99995 19.7998 7.99995 19.7998 7.89995C20.4998 7.79995 21.1998 7.59995 21.7998 7.49995C21.9998 7.49995 22.0998 7.49995 22.1998 7.69995C23.0998 9.69995 23.2998 11.6 22.4998 13.7C21.5998 15.9 19.8999 17.2999 17.5999 17.8999C17.1999 17.9999 16.7998 18.1 16.3998 18.1C16.3998 19.9 16.3998 21.5999 16.3998 23.3999C16.4998 23.2999 16.4998 23.3 16.4998 23.2C17.7998 21.4 19.6998 20.4 21.8998 20C23.0998 19.8 24.1998 19.8999 25.3998 20.3999C25.6998 20.4999 25.6999 20.5999 25.5999 20.8999C24.7999 22.5999 23.5998 23.8 21.8998 24.5C20.5998 25.1 19.1998 25.4 17.6998 25.2C17.2998 25.1 16.7998 24.9999 16.2998 24.8999C16.2998 25.3999 16.2998 25.8999 16.2998 26.3999C16.2998 26.4999 16.2998 26.5 16.2998 26.6C16.2998 26.8 16.1998 26.8999 15.9998 26.8999C15.7998 26.8999 15.6998 26.8 15.6998 26.6C15.6998 26.1 15.6998 25.6 15.6998 25.1C15.6998 25 15.6998 24.9 15.6998 24.8C15.2998 24.9 14.9998 25 14.6998 25C12.8998 25.3 11.1998 24.9 9.69983 24C8.29983 23.2 7.19985 22.1 6.59985 20.7C6.49985 20.4 6.49983 20.3 6.79983 20.2C8.29983 19.6 9.69983 19.6 11.1998 20C12.9998 20.5 14.4999 21.5 15.5999 23.1C15.5999 23.1 15.5998 23.1 15.6998 23.2C15.6998 21.4 15.6998 19.5999 15.6998 17.8999C15.1998 17.7999 14.6998 17.7 14.1998 17.6C11.4998 16.8 9.79983 15 9.19983 12.2C8.89983 10.6 9.19984 8.99995 9.89984 7.49995C9.99984 7.29995 10.0998 7.29996 10.2998 7.29996C10.9998 7.39996 11.5998 7.59995 12.2998 7.69995C12.3998 7.69995 12.4999 7.79996 12.5999 7.79996C12.6999 7.49996 12.7998 7.29995 12.7998 6.99995C13.2998 5.49995 14.2999 4.29995 15.5999 3.39995C15.6999 3.29995 15.7998 3.19995 15.8998 3.19995C16.1998 3.29995 16.2998 3.29996 16.2998 3.29996ZM16.3998 17.5C16.6998 17.5 16.8999 17.4999 17.0999 17.3999C18.6999 17.0999 20.0998 16.4 21.1998 15.1C22.8998 13 22.9998 10.6 21.9998 8.19995C21.9998 8.09995 21.8998 8.09996 21.7998 8.09996C20.9998 8.19996 20.2999 8.39995 19.5999 8.69995C18.2999 9.29995 17.1998 10.1999 16.4998 11.3999C15.7998 12.5999 15.5998 13.9 15.7998 15.3C15.8998 16.1 16.0998 16.8 16.3998 17.5ZM15.6998 17.5C15.6998 17.4 15.6998 17.4 15.6998 17.5C15.6998 17.4 15.5999 17.3 15.5999 17.2C14.8999 15.2 14.8998 13.2999 15.7998 11.3999C15.7998 11.2999 15.7998 11.2 15.7998 11.1C15.5998 10.8 15.3999 10.5 15.0999 10.2C13.8999 8.89995 12.3998 8.29996 10.6998 8.09996C10.5998 8.09996 10.4998 8.19995 10.4998 8.19995C9.99985 9.39995 9.69984 10.7 9.89984 12.1C10.3998 15.3 13.0998 17.2 15.6998 17.5ZM16.1998 3.89995C14.6998 4.99995 13.6998 6.39996 13.2998 8.09996C13.8998 8.49996 14.3998 8.79995 14.8998 9.19995C15.3998 9.59995 15.7998 10.1 16.1998 10.5C16.5998 10.1 16.9998 9.59995 17.4998 9.19995C17.9998 8.79995 18.4999 8.49996 19.0999 8.09996C18.6999 6.39996 17.6998 4.99995 16.1998 3.89995ZM15.7998 24.5C14.3998 21.4 9.99983 19.7999 7.29983 20.8999C8.69983 23.8999 12.8998 25.6 15.7998 24.5ZM16.5999 24.5C19.4999 25.6 23.7999 23.8999 25.0999 20.8999C22.1999 19.7999 17.8999 21.4 16.5999 24.5Z" fill="white"/>
<path d="M15.6998 17.5C15.6998 17.4 15.6998 17.4 15.6998 17.5ZM15.6998 17.5C15.6998 17.4 15.5999 17.3 15.5999 17.2C14.8999 15.2 14.8998 13.2999 15.7998 11.3999C15.7998 11.2999 15.7998 11.2 15.7998 11.1C15.5998 10.8 15.3999 10.5 15.0999 10.2C13.8999 8.89995 12.3998 8.29996 10.6998 8.09996C10.5998 8.09996 10.4998 8.19995 10.4998 8.19995C9.99985 9.39995 9.69984 10.7 9.89984 12.1C10.3998 15.3 13.0998 17.2 15.6998 17.5ZM16.2998 3.29996C16.9998 3.79996 17.6998 4.39996 18.1998 5.09996C18.7998 5.89996 19.2998 6.79996 19.4998 7.79996C19.4998 7.89996 19.4999 7.89995 19.5999 7.99995C19.6999 7.99995 19.7998 7.99995 19.7998 7.89995C20.4998 7.79995 21.1998 7.59995 21.7998 7.49995C21.9998 7.49995 22.0998 7.49995 22.1998 7.69995C23.0998 9.69995 23.2998 11.6 22.4998 13.7C21.5998 15.9 19.8999 17.2999 17.5999 17.8999C17.1999 17.9999 16.7998 18.1 16.3998 18.1C16.3998 19.9 16.3998 21.5999 16.3998 23.3999C16.4998 23.2999 16.4998 23.3 16.4998 23.2C17.7998 21.4 19.6998 20.4 21.8998 20C23.0998 19.8 24.1998 19.8999 25.3998 20.3999C25.6998 20.4999 25.6999 20.5999 25.5999 20.8999C24.7999 22.5999 23.5998 23.8 21.8998 24.5C20.5998 25.1 19.1998 25.4 17.6998 25.2C17.2998 25.1 16.7998 24.9999 16.2998 24.8999C16.2998 25.3999 16.2998 25.8999 16.2998 26.3999C16.2998 26.4999 16.2998 26.5 16.2998 26.6C16.2998 26.8 16.1998 26.8999 15.9998 26.8999C15.7998 26.8999 15.6998 26.8 15.6998 26.6C15.6998 26.1 15.6998 25.6 15.6998 25.1C15.6998 25 15.6998 24.9 15.6998 24.8C15.2998 24.9 14.9998 25 14.6998 25C12.8998 25.3 11.1998 24.9 9.69983 24C8.29983 23.2 7.19985 22.1 6.59985 20.7C6.49985 20.4 6.49983 20.3 6.79983 20.2C8.29983 19.6 9.69983 19.6 11.1998 20C12.9998 20.5 14.4999 21.5 15.5999 23.1C15.5999 23.1 15.5998 23.1 15.6998 23.2C15.6998 21.4 15.6998 19.5999 15.6998 17.8999C15.1998 17.7999 14.6998 17.7 14.1998 17.6C11.4998 16.8 9.79983 15 9.19983 12.2C8.89983 10.6 9.19984 8.99995 9.89984 7.49995C9.99984 7.29995 10.0998 7.29996 10.2998 7.29996C10.9998 7.39996 11.5998 7.59995 12.2998 7.69995C12.3998 7.69995 12.4999 7.79996 12.5999 7.79996C12.6999 7.49996 12.7998 7.29995 12.7998 6.99995C13.2998 5.49995 14.2999 4.29995 15.5999 3.39995C15.6999 3.29995 15.7998 3.19995 15.8998 3.19995C16.1998 3.29995 16.2998 3.29996 16.2998 3.29996ZM16.3998 17.5C16.6998 17.5 16.8999 17.4999 17.0999 17.3999C18.6999 17.0999 20.0998 16.4 21.1998 15.1C22.8998 13 22.9998 10.6 21.9998 8.19995C21.9998 8.09995 21.8998 8.09996 21.7998 8.09996C20.9998 8.19996 20.2999 8.39995 19.5999 8.69995C18.2999 9.29995 17.1998 10.1999 16.4998 11.3999C15.7998 12.5999 15.5998 13.9 15.7998 15.3C15.8998 16.1 16.0998 16.8 16.3998 17.5ZM16.1998 3.89995C14.6998 4.99995 13.6998 6.39996 13.2998 8.09996C13.8998 8.49996 14.3998 8.79995 14.8998 9.19995C15.3998 9.59995 15.7998 10.1 16.1998 10.5C16.5998 10.1 16.9998 9.59995 17.4998 9.19995C17.9998 8.79995 18.4999 8.49996 19.0999 8.09996C18.6999 6.39996 17.6998 4.99995 16.1998 3.89995ZM15.7998 24.5C14.3998 21.4 9.99983 19.7999 7.29983 20.8999C8.69983 23.8999 12.8998 25.6 15.7998 24.5ZM16.5999 24.5C19.4999 25.6 23.7999 23.8999 25.0999 20.8999C22.1999 19.7999 17.8999 21.4 16.5999 24.5Z" stroke="white" stroke-width="0.5" stroke-miterlimit="10"/>
</svg>
