<svg width="26" height="16" viewBox="0 0 26 16" fill="none" xmlns="http://www.w3.org/2000/svg">
<path d="M17.9034 10.1126C14.5034 10.1126 11.2034 10.1126 7.80344 10.1126C7.80344 10.3126 7.80344 10.4126 7.80344 10.5126C7.80344 11.5126 7.80344 12.5126 7.80344 13.5126C7.80344 14.8126 6.90344 15.6126 5.70344 15.6126C4.50344 15.6126 3.60344 14.7126 3.60344 13.5126C3.60344 13.2126 3.60344 12.8126 3.60344 12.5126C3.20344 12.6126 2.90344 12.8126 2.50344 12.8126C1.10344 13.0126 0.0034427 12.0126 0.0034427 10.6126C0.0034427 8.81256 0.0034427 6.91256 0.0034427 5.11256C-0.0965573 3.11256 2.00344 2.21256 3.50344 3.11256C3.50344 3.11256 3.60344 3.11257 3.70344 3.21257C3.70344 3.01257 3.70344 2.81256 3.70344 2.61256C3.70344 2.21256 3.70344 1.81257 3.80344 1.41257C4.10344 0.412567 5.10344 -0.0874417 6.10344 0.0125583C7.10344 0.212558 7.80344 0.912558 7.90344 2.01256C7.90344 2.91256 7.90344 3.81257 7.90344 4.71257C7.90344 4.81257 7.90344 5.01256 7.90344 5.11256C11.3034 5.11256 14.6034 5.11256 18.0034 5.11256C18.0034 5.01256 18.0034 4.81257 18.0034 4.71257C18.0034 3.81257 18.0034 3.01256 18.0034 2.11256C18.0034 0.912564 18.9034 0.0125583 20.1034 0.0125583C21.3034 0.0125583 22.2034 0.912564 22.2034 2.11256C22.2034 2.51256 22.2034 2.81256 22.2034 3.31256C22.7034 2.91256 23.3034 2.81256 23.8034 2.81256C24.9034 2.91256 25.8034 3.71256 25.8034 4.81256C25.8034 6.81256 25.8034 8.81257 25.8034 10.7126C25.8034 12.3126 24.0034 13.3126 22.6034 12.5126C22.5034 12.4126 22.4034 12.4126 22.2034 12.3126C22.2034 12.7126 22.2034 13.1126 22.2034 13.5126C22.2034 14.5126 21.5034 15.3126 20.6034 15.5126C19.2034 15.8126 18.0034 14.8126 18.0034 13.4126C18.0034 12.4126 18.0034 11.4126 18.0034 10.4126C17.9034 10.3126 17.9034 10.2126 17.9034 10.1126ZM7.10344 7.81256C7.10344 7.71256 7.10344 7.51257 7.10344 7.41257C7.10344 5.61257 7.10344 3.81256 7.10344 2.01256C7.10344 1.31256 6.60344 0.812571 5.90344 0.71257C5.00344 0.71257 4.50344 1.21256 4.50344 2.11256C4.50344 4.91256 4.50344 7.61257 4.50344 10.4126C4.50344 11.4126 4.50344 12.5126 4.50344 13.5126C4.50344 14.0126 4.70344 14.4126 5.10344 14.6126C6.00344 15.1126 7.10344 14.5126 7.10344 13.4126C7.10344 11.6126 7.10344 9.71256 7.10344 7.81256ZM21.3034 7.81256C21.3034 5.91256 21.3034 4.01256 21.3034 2.11256C21.3034 1.31256 20.8034 0.812561 20.0034 0.812561C19.2034 0.812561 18.7034 1.31256 18.7034 2.11256C18.7034 4.51256 18.7034 6.91256 18.7034 9.31256C18.7034 10.7126 18.7034 12.1126 18.7034 13.5126C18.7034 13.9126 18.8034 14.3126 19.1034 14.5126C19.5034 14.9126 20.1034 14.9126 20.6034 14.7126C21.1034 14.5126 21.3034 14.1126 21.3034 13.5126C21.3034 11.6126 21.3034 9.71256 21.3034 7.81256ZM7.90344 5.91257C7.90344 7.01257 7.90344 8.11257 7.90344 9.21257C11.2034 9.21257 14.6034 9.21257 17.9034 9.21257C17.9034 8.11257 17.9034 7.01257 17.9034 5.91257C14.6034 5.91257 11.2034 5.91257 7.90344 5.91257ZM22.1034 7.81256C22.1034 8.81256 22.1034 9.71257 22.1034 10.7126C22.1034 11.3126 22.4034 11.7126 23.0034 11.9126C24.0034 12.3126 25.0034 11.6126 25.0034 10.5126C25.0034 8.71256 25.0034 6.81256 25.0034 5.01256C25.0034 4.91256 25.0034 4.71256 25.0034 4.61256C24.9034 3.91256 24.2034 3.41256 23.4034 3.51256C22.7034 3.61256 22.1034 4.11256 22.1034 4.81256C22.1034 5.81256 22.1034 6.81256 22.1034 7.81256ZM3.70344 7.81256C3.70344 6.91256 3.70344 5.91256 3.70344 5.01256C3.70344 4.21256 3.10344 3.61256 2.30344 3.61256C1.50344 3.61256 0.803442 4.11257 0.803442 4.91257C0.803442 6.91257 0.803442 8.81256 0.803442 10.8126C0.803442 11.6126 1.50344 12.1126 2.30344 12.1126C3.10344 12.1126 3.60344 11.5126 3.60344 10.7126C3.70344 9.71257 3.70344 8.71256 3.70344 7.81256Z" fill="white"/>
</svg>
