<svg width="32" height="32" viewBox="0 0 32 32" fill="none" xmlns="http://www.w3.org/2000/svg">
<path d="M15.6 31.2C24.2156 31.2 31.2 24.2156 31.2 15.6C31.2 6.98436 24.2156 0 15.6 0C6.98436 0 0 6.98436 0 15.6C0 24.2156 6.98436 31.2 15.6 31.2Z" fill="#61B8EE"/>
<path d="M7.5999 18.5C7.8999 17.8 8.19991 17.2 8.39991 16.5C6.49991 15.8 6.1999 14.2 6.0999 12.5C5.7999 12.4 5.59991 12.4 5.39991 12.3C4.89991 12.1 4.59991 11.6 4.49991 11C4.49991 10.8 4.5999 10.6 4.6999 10.5C5.6999 9.80003 6.79991 9.10004 7.79991 8.40004C7.99991 8.30004 7.99991 8.20003 7.99991 8.00003C7.99991 7.80003 7.99991 7.60003 7.99991 7.30003C7.99991 7.00003 8.09991 6.90003 8.39991 6.80003C9.09991 6.70003 9.79991 7.20003 9.89991 8.00003C9.89991 8.30003 9.9999 8.50004 10.1999 8.70004C10.7999 9.60004 11.4999 10.6 12.0999 11.5C12.1999 11.6 12.2999 11.8 12.3999 11.8C14.3999 12.9 16.4999 13 18.5999 12C18.8999 11.9 19.1999 11.7 19.4999 11.7C20.6999 11.6 21.7999 11.8 22.6999 12.5C23.6999 13.2 24.0999 14.3 24.1999 15.5C24.1999 15.7 23.9999 15.9 23.7999 15.9C23.5999 15.9 23.3999 15.8 23.3999 15.5C23.3999 15.2 23.3999 15 23.2999 14.7C22.9999 13.5 21.9999 12.6 20.6999 12.5C20.4999 12.5 20.3999 12.5 20.1999 12.5L20.0999 12.6C20.1999 12.6 20.2999 12.6 20.2999 12.7C20.9999 13.4 21.3999 14.2 21.4999 15.1C21.4999 15.2 21.4999 15.3 21.5999 15.4C22.1999 16.4 22.6999 17.4 23.2999 18.3C23.2999 18.3 23.2999 18.3 23.3999 18.4C23.5999 18.2 23.7999 17.9 23.9999 17.7C24.1999 17.4 24.4999 17.2 24.7999 17.2C24.8999 17.2 24.9999 17.2 24.9999 17.2C25.5999 17.4 25.9999 17.8 26.1999 18.3C26.2999 18.6 26.1999 18.9 25.9999 19.2C23.9999 21.5 21.5999 23.1 18.5999 23.7C13.0999 24.9 8.4999 23.4 4.6999 19.2C4.2999 18.8 4.2999 18.3 4.6999 17.8C4.8999 17.6 4.9999 17.4 5.1999 17.3C5.5999 17 6.09991 17 6.49991 17.3C6.69991 17.5 6.79991 17.7 6.99991 17.9C7.39991 18.2 7.4999 18.3 7.5999 18.5ZM9.49991 20C9.59991 19.9 9.5999 19.8 9.6999 19.8C10.3999 18.8 11.0999 17.8 11.6999 16.8C11.8999 16.5 12.0999 16.5 12.3999 16.7L12.4999 16.8C13.5999 17.7 14.8999 18.2 16.2999 18C17.2999 17.8 18.0999 17.3 18.8999 16.6C19.1999 16.3 19.3999 16.3 19.6999 16.7C20.3999 17.7 21.1999 18.8 21.8999 19.9C21.9999 20 21.9999 20.1 22.0999 20.1C22.4999 19.8 22.8999 19.5 23.1999 19.3C22.8999 18.7 22.5999 18.2 22.2999 17.7C21.9999 17.2 21.6999 16.6 21.3999 16.1C21.2999 16 21.2999 15.9 21.2999 15.8C21.1999 14.6 20.4999 13.7 19.4999 13.1C19.2999 13 19.1999 13.1 19.0999 13.2C18.9999 13.2 18.9999 13.4 18.9999 13.4C19.1999 14.7 18.5999 15.7 17.3999 16.3C16.4999 16.7 15.5999 16.7 14.6999 16.5C13.2999 16.2 12.0999 15.1 12.3999 13.2C12.3999 13.1 12.2999 13 12.2999 13C11.9999 12.8 11.7999 12.7 11.5999 12.4C10.9999 11.4 10.2999 10.5 9.6999 9.50003C9.4999 9.20003 9.29991 8.90003 9.29991 8.50003C9.29991 8.30003 9.19991 8.10004 8.89991 8.10004C8.89991 8.30004 8.89991 8.50004 8.89991 8.70004C8.89991 8.90004 8.7999 9.10004 8.5999 9.20004C8.3999 9.40004 8.09991 9.50004 7.89991 9.70004C7.39991 10 7.0999 10.4 7.0999 10.9C7.0999 11.3 6.99991 11.6 6.99991 12C7.49991 12 7.99991 12 8.39991 12C8.69991 12 8.79991 12.1 8.89991 12.3C9.19991 13 9.59991 13.7 9.89991 14.4C9.99991 14.6 9.99991 14.8 9.89991 15C9.29991 16.3 8.79991 17.7 8.29991 19C8.29991 19.1 8.19991 19.2 8.29991 19.3C8.69991 19.4 9.09991 19.7 9.49991 20ZM21.2999 20.3C20.5999 19.3 19.8999 18.2 19.1999 17.2C18.1999 18.2 17.0999 18.7 15.6999 18.7C14.3999 18.7 13.1999 18.3 12.0999 17.4C11.3999 18.4 10.7999 19.3 10.0999 20.3C13.6999 22.3 18.0999 22.2 21.2999 20.3ZM15.1999 23.5C18.1999 23.5 20.6999 22.8 22.7999 21.5C23.8999 20.8 24.8999 19.9 25.7999 18.9C25.8999 18.7 25.8999 18.6 25.7999 18.5C25.6999 18.4 25.5999 18.3 25.4999 18.2C25.3999 18.1 25.2999 18.1 25.1999 18.2C25.0999 18.4 24.8999 18.5 24.7999 18.7C22.3999 21.2 19.4999 22.5 16.0999 22.6C13.1999 22.7 10.5999 21.8 8.29991 20C7.69991 19.5 7.09991 18.9 6.49991 18.3C6.29991 18.1 6.2999 18.1 6.0999 18.3C5.9999 18.4 5.89991 18.5 5.79991 18.6C5.69991 18.7 5.69991 18.8 5.79991 18.9C5.99991 19.1 6.09991 19.3 6.29991 19.5C8.69991 22.2 11.9999 23.4 15.1999 23.5ZM13.1999 13.1C12.9999 14 13.2999 14.7 13.9999 15.1C14.6999 15.5 15.4999 15.6 16.2999 15.5C16.7999 15.4 17.2999 15.2 17.6999 14.8C18.0999 14.4 18.2999 13.7 18.0999 13.2C17.2999 13.5 16.4999 13.6 15.5999 13.6C14.7999 13.6 13.9999 13.4 13.1999 13.1ZM8.6999 15.7C8.7999 15.3 8.9999 14.9 9.0999 14.5C9.0999 14.4 9.0999 14.3 9.0999 14.3C8.7999 13.7 8.4999 13.2 8.1999 12.6C8.1999 12.5 8.0999 12.5 8.0999 12.5C7.6999 12.5 7.29991 12.5 6.89991 12.5C6.89991 14 7.3999 15.5 8.6999 15.7ZM6.29991 10.4C5.99991 10.6 5.7999 10.7 5.5999 10.9C5.2999 11.1 5.2999 11.3 5.5999 11.5C5.6999 11.6 5.89991 11.6 5.99991 11.7C6.09991 11.7 6.1999 11.7 6.1999 11.5C6.1999 11.2 6.29991 10.9 6.29991 10.4Z" fill="white"/>
</svg>
