<svg width="32" height="32" viewBox="0 0 32 32" fill="none" xmlns="http://www.w3.org/2000/svg">
<path d="M15.6 31.2C24.2156 31.2 31.2 24.2156 31.2 15.6C31.2 6.98436 24.2156 0 15.6 0C6.98436 0 0 6.98436 0 15.6C0 24.2156 6.98436 31.2 15.6 31.2Z" fill="#61B8EE"/>
<path d="M16.8001 6.30005V14C16.8001 14.3 17.0001 14.5 17.3001 14.5H24.6001C24.9001 14.5 25.1001 14.7 25.1001 15V16.3C25.1001 16.6 24.9001 16.8 24.6001 16.8H17.3001C17.0001 16.8 16.8001 17 16.8001 17.3V25C16.8001 25.3 16.6001 25.5 16.3001 25.5H14.9001C14.6001 25.5 14.4001 25.3 14.4001 25V17.3C14.4001 17 14.2001 16.8 13.9001 16.8H6.6001C6.3001 16.8 6.1001 16.6 6.1001 16.3V15C6.1001 14.7 6.3001 14.5 6.6001 14.5H13.9001C14.2001 14.5 14.4001 14.3 14.4001 14V6.30005C14.4001 6.00005 14.6001 5.80005 14.9001 5.80005H16.3001C16.6001 5.90005 16.8001 6.10005 16.8001 6.30005Z" fill="white" stroke="white" stroke-miterlimit="10"/>
</svg>
