<svg width="32" height="32" viewBox="0 0 32 32" fill="none" xmlns="http://www.w3.org/2000/svg">
<path d="M15.6 31.2C24.2156 31.2 31.2 24.2156 31.2 15.6C31.2 6.98436 24.2156 0 15.6 0C6.98433 0 0 6.98436 0 15.6C0 24.2156 6.98433 31.2 15.6 31.2Z" fill="#61B8EE"/>
<path d="M8.59989 13.2C7.79989 13.6 7.09991 14 6.39991 14.4C5.59991 14.8 4.6999 14.6 4.1999 14C3.8999 13.6 3.7999 13.2 3.7999 12.8C3.5999 11.2 4.19992 9.9 5.49992 9C5.99992 8.7 6.49992 8.40001 6.99992 8.10001C7.09992 8.00001 7.19989 8.00001 7.09989 7.90001C7.09989 7.20001 7.39992 6.60001 7.99992 6.20001C9.09992 5.60001 10.2999 5.40001 11.4999 5.70001C11.5999 5.70001 11.5999 5.7 11.6999 5.8C11.6999 5.8 11.6999 5.80001 11.7999 5.70001C12.1999 5.10001 12.7999 4.80001 13.4999 4.70001C15.1999 4.50001 16.5999 5.00001 17.8999 6.10001C17.9999 6.10001 17.9999 6.20001 18.0999 6.20001C18.4999 6.00001 18.8999 5.80001 19.2999 5.70001C19.6999 5.60001 20.1999 5.60001 20.6999 5.70001C22.7999 6.40001 24.0999 7.80001 24.7999 9.90001C24.9999 10.7 24.8999 11.4 24.3999 12.1C24.3999 12.1 24.3999 12.2 24.2999 12.2C24.7999 12.8 25.2999 13.4 25.5999 14.1C25.9999 15.1 26.1999 16.2 25.9999 17.2C25.8999 17.8 25.5999 18.2 24.9999 18.6C25.0999 18.9 25.0999 19.3 25.1999 19.6C25.2999 20.6 25.0999 21.5 24.5999 22.4C24.1999 23 23.6999 23.3 22.9999 23.2C22.8999 23.2 22.7999 23.2 22.6999 23.4C22.3999 24.2 21.8999 24.9 21.2999 25.5C20.1999 26.6 18.8999 26.9 17.4999 26.5C16.3999 26.2 15.8999 25 16.3999 24.1C16.6999 23.4 17.0999 22.7 17.4999 22C17.4999 21.9 17.5999 21.9 17.5999 21.8C17.0999 21.4 16.7999 20.9 16.8999 20.2C16.8999 19.8 16.9999 19.5 16.9999 19.1C16.9999 19 16.9999 18.8 16.8999 18.7C16.6999 18.4 16.5999 18.2 16.4999 17.9C16.2999 17.3 16.1999 16.7 15.4999 16.3C14.9999 15.9 14.4999 15.4 14.0999 14.9C13.7999 14.6 13.4999 14.4 13.0999 14.3C12.5999 14.2 12.1999 14 11.7999 13.7C11.7999 13.7 11.6999 13.7 11.5999 13.7C11.1999 13.7 10.8999 13.8 10.4999 13.8C9.59992 14 9.09989 13.7 8.59989 13.2ZM13.7999 13.5C13.7999 14 13.9999 14.4 14.2999 14.7C14.6999 15.1 15.1999 15.6 15.5999 16C16.1999 16.6 16.9999 16.7 17.7999 16.2C18.2999 15.9 18.6999 15.6 19.1999 15.2C20.5999 14.3 21.8999 13.3 23.2999 12.4C24.0999 11.8 24.4999 10.9 24.0999 10C23.4999 8.2 22.2999 6.9 20.4999 6.3C19.5999 6 18.5999 6.30001 18.0999 7.10001C16.7999 9.00001 15.4999 10.9 14.1999 12.8C13.8999 13 13.7999 13.3 13.7999 13.5ZM16.4999 17.1C16.5999 17.5 16.6999 17.9 16.8999 18.3C17.1999 18.9 17.7999 19.2 18.4999 19.2C18.7999 19.2 19.1999 19.1 19.4999 19.1C20.9999 18.9 22.4999 18.8 23.8999 18.6C24.5999 18.5 25.0999 18 25.1999 17.3C25.3999 15.7 24.9999 14.4 23.9999 13.2C23.8999 13.1 23.6999 12.9 23.5999 12.8C21.5999 14.2 19.6999 15.5 17.7999 16.8C17.5999 16.9 17.2999 17 17.0999 17.1C16.9999 17.1 16.7999 17.1 16.4999 17.1ZM13.2999 14C13.0999 13.2 13.4999 12.6 13.8999 12C14.5999 11 15.3999 9.90001 16.0999 8.90001C16.5999 8.20001 17.0999 7.40001 17.6999 6.70001C16.4999 5.60001 15.0999 5.1 13.4999 5.3C12.6999 5.4 12.1999 6 12.0999 6.8C11.8999 8.6 11.6999 10.4 11.4999 12.2C11.3999 12.9 11.6999 13.5 12.2999 13.8C12.5999 13.8 12.8999 13.9 13.2999 14ZM11.4999 6.3C10.2999 6 9.09989 6.1 8.09989 6.8C7.59989 7.1 7.49989 7.60001 7.59989 8.10001C7.99989 9.60001 8.39991 11.1 8.89991 12.6C8.99991 13.1 9.3999 13.4 9.7999 13.4C10.1999 13.4 10.6999 13.4 11.0999 13.4C10.8999 13 10.7999 12.6 10.7999 12.2C10.8999 11.6 10.8999 11.1 10.9999 10.5C11.1999 9 11.3999 7.7 11.4999 6.3ZM17.2999 19.4C17.2999 19.8 17.1999 20.1 17.1999 20.5C17.1999 21 17.5999 21.5 18.0999 21.7C19.5999 22.1 20.9999 22.5 22.4999 22.9C23.0999 23.1 23.5999 22.8 23.8999 22.3C24.0999 22 24.1999 21.7 24.2999 21.3C24.4999 20.5 24.4999 19.8 24.2999 19C24.1999 19 24.0999 19 23.8999 19C22.3999 19.2 20.7999 19.3 19.2999 19.5C18.5999 19.7 17.8999 19.8 17.2999 19.4ZM21.9999 23.3C20.5999 22.9 19.2999 22.5 17.8999 22.2C17.8999 22.2 17.7999 22.2 17.6999 22.3C17.2999 23 16.8999 23.8 16.4999 24.5C16.1999 25.2 16.5999 26 17.2999 26.2C18.3999 26.5 19.3999 26.3 20.2999 25.7C21.1999 25.1 21.5999 24.3 21.9999 23.3ZM7.1999 8.5C6.5999 8.8 5.99992 9.1 5.49992 9.5C4.49992 10.3 4.0999 11.4 4.1999 12.7C4.2999 13.9 5.3999 14.3 6.2999 13.8C6.8999 13.4 7.5999 13.1 8.1999 12.8C8.2999 12.7 8.3999 12.7 8.2999 12.5C8.0999 11.8 7.8999 11 7.6999 10.3C7.4999 9.70001 7.3999 9.1 7.1999 8.5Z" fill="white" stroke="white" stroke-width="0.5" stroke-miterlimit="10"/>
</svg>
