<svg width="32" height="32" viewBox="0 0 32 32" fill="none" xmlns="http://www.w3.org/2000/svg">
<path d="M15.6 31.2C24.2156 31.2 31.2 24.2156 31.2 15.6C31.2 6.98436 24.2156 0 15.6 0C6.98436 0 0 6.98436 0 15.6C0 24.2156 6.98436 31.2 15.6 31.2Z" fill="#61B8EE"/>
<path d="M12.1001 19.7001C12.9001 18.9001 13.8001 18.5001 14.9001 18.8001C16.1001 19.1001 16.9001 20.1001 16.9001 21.4001C16.9001 22.6001 16.1001 23.7001 14.9001 24.0001C13.7001 24.3001 12.5001 23.8001 12.0001 22.6001C11.6001 21.7001 11.3001 20.7001 10.9001 19.8001C10.7001 19.3001 10.5001 18.8001 10.3001 18.2001C10.2001 18.5001 10.1001 18.6001 10.0001 18.8001C9.60008 20.0001 9.10009 21.2001 8.70009 22.4001C8.30009 23.4001 7.50008 24.0001 6.50008 24.1001C5.50008 24.2001 4.70008 23.8001 4.10008 23.0001C3.30008 21.9001 3.50008 20.4001 4.50008 19.5001C5.50008 18.6001 6.90007 18.6001 7.90007 19.4001C8.00007 19.5001 8.20007 19.6001 8.40007 19.8001C8.80007 18.7001 9.20008 17.6001 9.60008 16.5001C9.70008 16.3001 9.50008 16.1001 9.50008 15.9001C8.60008 13.5001 7.7001 11.0001 6.8001 8.60007C6.7001 8.40007 6.7001 8.00007 6.8001 7.80007C6.9001 7.70007 7.2001 7.50007 7.3001 7.60007C7.5001 7.70007 7.80007 7.90007 7.90007 8.10007C8.40007 9.40007 8.90007 10.8001 9.40007 12.1001C9.70007 12.9001 10.0001 13.7001 10.3001 14.6001C10.4001 14.3001 10.5001 14.2001 10.6001 14.0001C11.3001 12.1001 12.1001 10.1001 12.8001 8.20006C13.0001 7.80006 13.2001 7.40007 13.7001 7.60007C14.2001 7.80007 14.1001 8.20007 13.9001 8.60007C13.0001 11.0001 12.1001 13.4001 11.2001 15.8001C11.1001 16.1001 11.1001 16.6001 11.2001 16.9001C11.4001 17.9001 11.7001 18.8001 12.1001 19.7001ZM12.8001 21.4001C12.8001 22.2001 13.5001 22.8001 14.2001 22.8001C15.0001 22.8001 15.6001 22.1001 15.6001 21.3001C15.6001 20.5001 14.9001 19.9001 14.2001 19.9001C13.5001 20.0001 12.8001 20.6001 12.8001 21.4001ZM7.50008 21.4001C7.50008 20.6001 6.90008 20.0001 6.10008 20.0001C5.30008 20.0001 4.70009 20.6001 4.70009 21.4001C4.70009 22.2001 5.30008 22.8001 6.10008 22.8001C6.90008 22.8001 7.50008 22.2001 7.50008 21.4001Z" fill="white"/>
<path d="M18.8999 15.6C18.8999 13.7 18.8999 11.9 18.8999 10C18.8999 8.00002 19.9999 6.90002 21.9999 6.90002C22.9999 6.90002 23.9999 6.90002 24.9999 6.90002C25.3999 6.90002 25.7999 7.00002 25.7999 7.50002C25.7999 8.00002 25.3999 8.10002 24.9999 8.10002C23.9999 8.10002 22.8999 8.10002 21.8999 8.10002C20.7999 8.10002 20.1999 8.70002 20.1999 9.80002C20.1999 13.7 20.1999 17.5 20.1999 21.4C20.1999 22.5 20.7999 23 21.8999 23C22.8999 23 23.9999 23 24.9999 23C25.4999 23 25.7999 23.1 25.7999 23.6C25.7999 24.1 25.3999 24.2 24.9999 24.2C23.8999 24.2 22.8999 24.2 21.7999 24.2C20.0999 24.2 18.8999 23 18.8999 21.3C18.8999 19.5 18.8999 17.5 18.8999 15.6Z" fill="white"/>
<path d="M23.3002 16C22.8002 16 22.3002 16 21.9002 16C21.5002 16 21.2002 15.8001 21.2002 15.4001C21.2002 15.0001 21.5002 14.8 21.9002 14.8C22.9002 14.8 23.9002 14.8 24.9002 14.8C25.1002 14.8 25.4002 15.1001 25.5002 15.4001C25.6002 15.8001 25.3002 16 24.9002 16C24.3002 16.1 23.8002 16 23.3002 16Z" fill="white"/>
<path d="M23.4001 20.1C23.9001 20.1 24.3001 20.1 24.8001 20.1C25.2001 20.1 25.5001 20.3 25.5001 20.7C25.5001 21.1 25.3001 21.3 24.9001 21.3C23.9001 21.3 22.9001 21.3 21.9001 21.3C21.7001 21.3 21.3001 21 21.3001 20.7C21.2001 20.3 21.5001 20.1 21.9001 20.1C22.4001 20 22.9001 20.1 23.4001 20.1Z" fill="white"/>
<path d="M23.4001 10.8C22.9001 10.8 22.4001 10.9 21.9001 10.8C21.7001 10.8 21.3001 10.5 21.3001 10.2C21.2001 9.79997 21.5001 9.59998 21.9001 9.59998C22.9001 9.59998 23.9001 9.59998 24.9001 9.59998C25.3001 9.59998 25.6001 9.79997 25.5001 10.2C25.5001 10.6 25.2001 10.8 24.9001 10.8C24.3001 10.8 23.8001 10.8 23.4001 10.8Z" fill="white"/>
<path d="M23.3001 12.2C23.8001 12.2 24.3001 12.2 24.8001 12.2C25.2001 12.2 25.4 12.4 25.4 12.8C25.4 13.2 25.2001 13.4 24.8001 13.4C23.8001 13.4 22.8001 13.4 21.8001 13.4C21.4001 13.4 21.1 13.1 21.2 12.8C21.3 12.6 21.6001 12.3 21.8001 12.2C22.3001 12.1 22.8001 12.2 23.3001 12.2Z" fill="white"/>
<path d="M23.4001 17.4C23.8001 17.4 24.3001 17.4 24.7001 17.4C25.1001 17.4 25.4001 17.6 25.4001 18C25.4001 18.4 25.1001 18.6 24.7001 18.6C23.7001 18.6 22.8001 18.6 21.8001 18.6C21.4001 18.6 21.1001 18.4 21.1001 18C21.1001 17.6 21.4001 17.4 21.8001 17.4C22.4001 17.4 22.9001 17.4 23.4001 17.4Z" fill="white"/>
</svg>
