<svg width="32" height="32" viewBox="0 0 32 32" fill="none" xmlns="http://www.w3.org/2000/svg">
<path d="M15.6 31.2C24.2156 31.2 31.2 24.2156 31.2 15.6C31.2 6.98435 24.2156 0 15.6 0C6.98436 0 0 6.98435 0 15.6C0 24.2156 6.98436 31.2 15.6 31.2Z" fill="#61B8EE"/>
<path d="M27.3 13.1C26.8 13.2 26.4 13.4 25.9 13.5C24.6 13.9 23.4 14.3 22.1 14.6C21.9 14.7 21.9 14.7 21.9 14.9C21.9 16.4 21.9 17.8 21.9 19.3C21.9 19.8 21.7 20.2 21.3 20.4C20.7 20.6 20 20.9 19.4 21C16.3 21.6 13.1 21.6 10 21C9.4 20.9 8.9 20.7 8.3 20.5C7.8 20.3 7.5 19.9 7.5 19.3C7.5 17.9 7.5 16.5 7.5 15C7.5 14.8 7.4 14.7 7.2 14.6C5.4 14.1 3.7 13.6 1.9 13H1.8C1.6 13 1.5 12.9 1.5 12.7C1.5 12.5 1.7 12.5 1.8 12.4C2.2 12.3 2.5 12.2 2.9 12.1C6.7 11 10.5 9.8 14.3 8.7C14.5 8.6 14.8 8.6 15 8.7C19.1 9.9 23.3 11.2 27.4 12.4C27.9 12.5 27.9 12.5 27.9 13C27.9 14.8 27.9 16.6 27.9 18.4C27.9 18.6 27.9 18.7 28.1 18.8C28.6 19 28.9 19.4 28.9 20C28.9 20.7 28.9 21.4 28.9 22C28.9 22.4 28.7 22.6 28.3 22.6C27.8 22.6 27.4 22.6 26.9 22.6C26.5 22.6 26.3 22.4 26.3 22C26.3 21.3 26.3 20.6 26.3 19.9C26.3 19.3 26.6 18.9 27.1 18.7C27.2 18.7 27.3 18.6 27.3 18.5C27.3 16.8 27.3 15 27.3 13.1C27.3 13.2 27.3 13.2 27.3 13.1ZM21.3 18.9C21.3 18.8 21.3 18.7 21.3 18.6C21.3 17.1 21.3 15.7 21.3 14.2C21.3 13.9 21.2 13.7 20.9 13.6C20.3 13.4 19.7 13.2 19.1 13C16.2 12.5 13.3 12.5 10.3 13C9.6 13.1 9 13.3 8.4 13.5C8.1 13.6 7.9 13.8 7.9 14.2C7.9 15.6 7.9 17.1 7.9 18.5C7.9 18.6 7.9 18.7 7.9 18.8C8.7 18.4 9.6 18.2 10.4 18C12.5 17.7 14.7 17.6 16.9 17.8C18.4 18 19.9 18.2 21.3 18.9ZM26.6 12.7C26.5 12.7 26.4 12.6 26.4 12.6C22.6 11.5 18.7 10.3 14.9 9.2C14.8 9.2 14.6 9.2 14.5 9.2C11.1 10.2 7.6 11.2 4.2 12.2C3.7 12.3 3.3 12.5 2.8 12.6C2.8 12.6 2.8 12.6 2.8 12.7C4.3 13.2 5.9 13.6 7.5 14.1C7.4 13.5 7.8 13.2 8.3 13C8.5 12.9 8.7 12.8 8.9 12.8C9.9 12.6 11 12.4 12 12.2C13.8 12 15.6 12 17.4 12.2C18.6 12.3 19.7 12.5 20.8 12.9C21.4 13.1 21.9 13.4 21.9 14.2C23.4 13.7 25 13.2 26.6 12.7ZM14.5 20.9C16.3 20.9 17.9 20.8 19.5 20.4C19.9 20.3 20.4 20.1 20.8 20C21 19.9 21.1 19.8 21.2 19.6C21.1 19.5 20.9 19.3 20.8 19.2C20.6 19.1 20.3 19 20.1 18.9C18.8 18.5 17.4 18.4 16.1 18.3C14.1 18.2 12.1 18.3 10.1 18.7C9.50001 18.8 8.9 19.1 8.3 19.3C8 19.4 8 19.7 8.3 19.8C8.6 20 9 20.1 9.4 20.2C11 20.8 12.8 20.9 14.5 20.9ZM28.3 22.1C28.3 21.4 28.3 20.6 28.3 19.9C28.3 19.5 27.9 19.2 27.5 19.2C27.1 19.2 26.8 19.5 26.8 20C26.8 20.5 26.8 20.9 26.8 21.4C26.8 21.6 26.8 21.8 26.8 22C27.3 22.1 27.8 22.1 28.3 22.1Z" fill="white"/>
<path d="M27.3 13.1C26.8 13.2 26.4 13.4 25.9 13.5C24.6 13.9 23.4 14.3 22.1 14.6C21.9 14.7 21.9 14.7 21.9 14.9C21.9 16.4 21.9 17.8 21.9 19.3C21.9 19.8 21.7 20.2 21.3 20.4C20.7 20.6 20 20.9 19.4 21C16.3 21.6 13.1 21.6 10 21C9.4 20.9 8.9 20.7 8.3 20.5C7.8 20.3 7.5 19.9 7.5 19.3C7.5 17.9 7.5 16.5 7.5 15C7.5 14.8 7.4 14.7 7.2 14.6C5.4 14.1 3.7 13.6 1.9 13H1.8C1.6 13 1.5 12.9 1.5 12.7C1.5 12.5 1.7 12.5 1.8 12.4C2.2 12.3 2.5 12.2 2.9 12.1C6.7 11 10.5 9.8 14.3 8.7C14.5 8.6 14.8 8.6 15 8.7C19.1 9.9 23.3 11.2 27.4 12.4C27.9 12.5 27.9 12.5 27.9 13C27.9 14.8 27.9 16.6 27.9 18.4C27.9 18.6 27.9 18.7 28.1 18.8C28.6 19 28.9 19.4 28.9 20C28.9 20.7 28.9 21.4 28.9 22C28.9 22.4 28.7 22.6 28.3 22.6C27.8 22.6 27.4 22.6 26.9 22.6C26.5 22.6 26.3 22.4 26.3 22C26.3 21.3 26.3 20.6 26.3 19.9C26.3 19.3 26.6 18.9 27.1 18.7C27.2 18.7 27.3 18.6 27.3 18.5C27.3 16.8 27.3 15 27.3 13.1ZM27.3 13.1C27.3 13.2 27.3 13.2 27.3 13.1ZM21.3 18.9C21.3 18.8 21.3 18.7 21.3 18.6C21.3 17.1 21.3 15.7 21.3 14.2C21.3 13.9 21.2 13.7 20.9 13.6C20.3 13.4 19.7 13.2 19.1 13C16.2 12.5 13.3 12.5 10.3 13C9.6 13.1 9 13.3 8.4 13.5C8.1 13.6 7.9 13.8 7.9 14.2C7.9 15.6 7.9 17.1 7.9 18.5C7.9 18.6 7.9 18.7 7.9 18.8C8.7 18.4 9.6 18.2 10.4 18C12.5 17.7 14.7 17.6 16.9 17.8C18.4 18 19.9 18.2 21.3 18.9ZM26.6 12.7C26.5 12.7 26.4 12.6 26.4 12.6C22.6 11.5 18.7 10.3 14.9 9.2C14.8 9.2 14.6 9.2 14.5 9.2C11.1 10.2 7.6 11.2 4.2 12.2C3.7 12.3 3.3 12.5 2.8 12.6C2.8 12.6 2.8 12.6 2.8 12.7C4.3 13.2 5.9 13.6 7.5 14.1C7.4 13.5 7.8 13.2 8.3 13C8.5 12.9 8.7 12.8 8.9 12.8C9.9 12.6 11 12.4 12 12.2C13.8 12 15.6 12 17.4 12.2C18.6 12.3 19.7 12.5 20.8 12.9C21.4 13.1 21.9 13.4 21.9 14.2C23.4 13.7 25 13.2 26.6 12.7ZM14.5 20.9C16.3 20.9 17.9 20.8 19.5 20.4C19.9 20.3 20.4 20.1 20.8 20C21 19.9 21.1 19.8 21.2 19.6C21.1 19.5 20.9 19.3 20.8 19.2C20.6 19.1 20.3 19 20.1 18.9C18.8 18.5 17.4 18.4 16.1 18.3C14.1 18.2 12.1 18.3 10.1 18.7C9.50001 18.8 8.9 19.1 8.3 19.3C8 19.4 8 19.7 8.3 19.8C8.6 20 9 20.1 9.4 20.2C11 20.8 12.8 20.9 14.5 20.9ZM28.3 22.1C28.3 21.4 28.3 20.6 28.3 19.9C28.3 19.5 27.9 19.2 27.5 19.2C27.1 19.2 26.8 19.5 26.8 20C26.8 20.5 26.8 20.9 26.8 21.4C26.8 21.6 26.8 21.8 26.8 22C27.3 22.1 27.8 22.1 28.3 22.1Z" stroke="white" stroke-width="0.25" stroke-miterlimit="10"/>
</svg>
