<svg width="32" height="32" viewBox="0 0 32 32" fill="none" xmlns="http://www.w3.org/2000/svg">
<path d="M15.6 31.2C24.2156 31.2 31.2 24.2156 31.2 15.6C31.2 6.98436 24.2156 0 15.6 0C6.98436 0 0 6.98436 0 15.6C0 24.2156 6.98436 31.2 15.6 31.2Z" fill="#61B8EE"/>
<path d="M15.5999 29.8C23.4423 29.8 29.7999 23.4425 29.7999 15.6C29.7999 7.75758 23.4423 1.40002 15.5999 1.40002C7.75746 1.40002 1.3999 7.75758 1.3999 15.6C1.3999 23.4425 7.75746 29.8 15.5999 29.8Z" fill="#00B33C"/>
<path d="M6.79982 17.4H5.69983C3.99983 17.4 5.19983 13.8 6.69983 13.8H8.39983C8.69983 13.8 9.19983 13.9 9.39983 13.2L9.79982 12.1H7.39983C6.09983 12.1 5.09983 12.6 4.39983 13.3C3.09983 14.6 2.69982 16.6 2.99982 17.6C3.29982 18.5 4.09982 19.1 5.29982 19.1H6.19983H7.39983L7.69983 18.2C7.99983 17.6 7.49982 17.4 6.79982 17.4ZM20.1998 15.9L20.5998 14.7H16.7998C16.1998 14.7 15.8998 14.9 15.7998 15.2L15.3998 16.4H19.1998C19.7998 16.4 20.0998 16.3 20.1998 15.9ZM14.7998 17.9L14.3998 19.1H18.1998C18.7998 19.1 19.0998 18.9 19.1998 18.6L19.5998 17.4H15.7998C15.1998 17.4 14.8998 17.6 14.7998 17.9ZM21.0998 13.2L21.4998 12H17.5998C16.9998 12 16.6998 12.2 16.5998 12.5L16.1998 13.7H19.9998C20.6998 13.8 20.9998 13.6 21.0998 13.2ZM15.2998 13.5C15.0998 12.4 14.5998 12.1 13.1998 12.1H10.5998L9.09982 16.5H9.99982C10.5998 16.5 10.7998 16.5 11.0998 15.7L11.6998 13.8H12.6998C13.4998 13.8 13.2998 14.8 12.8998 15.8C12.4998 16.7 11.8998 17.4 11.0998 17.4H9.49982C8.89982 17.4 8.59982 17.6 8.49982 17.9L8.09982 19.1H9.29982H10.3998C11.3998 19.1 12.1998 19 13.1998 18.1C14.2998 17.2 15.4998 14.8 15.2998 13.5ZM28.1998 12.1H25.9998L23.8998 14.3C23.6998 14.6 23.3998 14.8 23.1998 15.1L24.1998 12.1H22.3998L19.9998 19.2H21.7998L22.5998 17L23.3998 16.3L23.9998 18.3C24.1998 18.9 24.3998 19.2 24.7998 19.2H26.1998L24.7998 15.3L28.1998 12.1Z" fill="white"/>
</svg>
