<svg width="32" height="32" viewBox="0 0 32 32" fill="none" xmlns="http://www.w3.org/2000/svg">
<path d="M15.6 31.2C24.2156 31.2 31.2 24.2156 31.2 15.6C31.2 6.98436 24.2156 0 15.6 0C6.98436 0 0 6.98436 0 15.6C0 24.2156 6.98436 31.2 15.6 31.2Z" fill="#61B8EE"/>
<path d="M24.7998 10C24.7998 9.70003 24.6998 9.60004 24.3998 9.60004C23.3998 9.60004 22.4998 9.60004 21.4998 9.60004H21.2998C21.2998 9.50004 21.2998 9.40003 21.2998 9.30003C21.2998 7.40003 20.0998 5.90003 18.2998 5.50003C18.0998 5.50003 17.9998 5.40002 17.7998 5.40002H16.9998C16.5998 5.50002 16.2998 5.60003 15.8998 5.70003C15.6998 5.80003 15.4998 5.80003 15.1998 5.70003C14.8998 5.60003 14.4998 5.50002 14.0998 5.40002H13.2998H13.1998C11.3998 5.60002 9.9998 7.20002 9.8998 8.90002C9.8998 9.80002 9.8998 10.7 9.8998 11.5C9.8998 12 10.2998 12.4 10.7998 12.4C11.2998 12.4 11.6998 12 11.6998 11.5C11.6998 11.1 11.6998 10.7 11.6998 10.3C11.6998 10.2 11.6998 10.2 11.6998 10.1H15.7998C15.7998 10.6 15.7998 11.1 15.7998 11.5C15.7998 12 16.1998 12.4 16.6998 12.4C17.1998 12.4 17.5998 12 17.5998 11.5C17.5998 11.1 17.5998 10.7 17.5998 10.3C17.5998 10.2 17.5998 10.2 17.5998 10.1H20.4998V25H6.8998V10.1H7.09981C7.69981 10.1 8.2998 10.1 8.8998 10.1C9.0998 10.1 9.2998 10 9.2998 9.80003C9.2998 9.60003 9.1998 9.50003 8.8998 9.50003C8.1998 9.50003 7.4998 9.50003 6.6998 9.50003C6.3998 9.50003 6.2998 9.60002 6.2998 9.90002C6.2998 15 6.2998 20.1 6.2998 25.1C6.2998 25.4 6.3998 25.5 6.6998 25.5C12.4998 25.5 18.3998 25.5 24.1998 25.5C24.4998 25.5 24.5998 25.4 24.5998 25.1C24.7998 20.2 24.7998 15.1 24.7998 10ZM13.4998 9.60004H11.6998C11.4998 8.00004 12.9998 7.00003 13.9998 7.30003C13.6998 8.00003 13.4998 8.80004 13.4998 9.60004ZM14.7998 8.70003C14.6998 9.00003 14.6998 9.30003 14.6998 9.70003H14.1998C14.1998 8.90003 14.2998 8.20003 14.7998 7.50003C14.9998 7.60003 15.0998 7.70003 15.2998 7.80003C14.9998 8.10003 14.8998 8.40003 14.7998 8.70003ZM15.8998 9.60004H15.2998C15.2998 9.10004 15.2998 8.70003 15.5998 8.30003C15.8998 8.70003 15.8998 9.10004 15.8998 9.60004ZM17.0998 11.8C17.0998 11.9 16.9998 12 16.7998 12C16.6998 12 16.4998 11.9 16.4998 11.8C16.4998 11.7 16.4998 11.7 16.4998 11.6C16.4998 10.9 16.4998 10.2 16.4998 9.40002C16.4998 8.10002 15.6998 7.00003 14.3998 6.70003C12.7998 6.30003 11.2998 7.50004 11.1998 9.10004C11.1998 9.90004 11.1998 10.7 11.1998 11.5C11.1998 11.8 11.0998 11.9 10.8998 12C10.6998 12 10.5998 11.9 10.5998 11.5C10.5998 11.1 10.5998 10.7 10.5998 10.3C10.5998 9.70003 10.5998 9.10004 10.6998 8.60004C10.9998 7.10004 12.3998 6.00004 13.9998 6.10004C15.4998 6.20004 16.7998 7.30003 17.0998 8.80003C17.0998 9.00003 17.1998 9.20003 17.1998 9.50003C17.1998 10.2 17.1998 10.9 17.1998 11.6C17.0998 11.6 17.0998 11.7 17.0998 11.8ZM19.3998 9.60004H17.5998C17.5998 8.80004 17.4998 8.00003 16.9998 7.30003C18.3998 7.00003 19.5998 8.30004 19.3998 9.60004ZM20.0998 9.60004C20.0998 9.30004 20.0998 9.10003 19.9998 8.80003C19.6998 7.30003 18.2998 6.40003 16.8998 6.70003C16.7998 6.70003 16.6998 6.70004 16.5998 6.60004C16.4998 6.50004 16.3998 6.40003 16.1998 6.30003C17.3998 5.90003 18.3998 6.00003 19.3998 6.80003C20.2998 7.50003 20.6998 8.50003 20.6998 9.70003H20.0998V9.60004ZM21.1998 10.2H22.3998V10.4C22.3998 14.7 22.3998 18.9 22.3998 23.2C22.3998 23.4 22.3998 23.5 22.1998 23.6C21.8998 23.9 21.4998 24.3 21.1998 24.6V10.2ZM21.6998 25.1C21.9998 24.8 22.3998 24.4 22.6998 24.1C22.9998 24.4 23.3998 24.8 23.6998 25.1H21.6998ZM24.1998 24.7C24.0998 24.7 24.0998 24.6 24.0998 24.6C23.7998 24.3 23.4998 24 23.1998 23.7C23.0998 23.6 23.0998 23.5 23.0998 23.4C23.0998 19.1 23.0998 14.8 23.0998 10.4C23.0998 10.3 23.0998 10.3 23.0998 10.2H24.2998V24.7H24.1998Z" fill="white"/>
</svg>
