<svg width="32" height="32" viewBox="0 0 32 32" fill="none" xmlns="http://www.w3.org/2000/svg">
<path d="M15.6 31.2C24.2156 31.2 31.2 24.2156 31.2 15.6C31.2 6.98436 24.2156 0 15.6 0C6.98436 0 0 6.98436 0 15.6C0 24.2156 6.98436 31.2 15.6 31.2Z" fill="#61B8EE"/>
<path d="M12.1999 11.3001C11.6999 10.8001 11.0999 10.4001 10.5999 9.90006C9.79988 9.20006 8.89988 8.50006 8.09988 7.80006C7.59988 7.40006 7.49989 6.90006 7.69989 6.40006C7.89989 5.80006 8.49988 5.40006 8.99988 5.50006C9.29988 5.50006 9.5999 5.60006 9.7999 5.80006C11.9999 7.60006 14.0999 9.30006 16.1999 11.1001C16.3999 11.3001 16.5999 11.4001 16.8999 11.4001C19.6999 11.4001 22.3999 11.4001 25.1999 11.4001C25.9999 11.4001 26.4999 11.8001 26.5999 12.4001C26.6999 12.8001 26.6999 13.3001 26.5999 13.7001C26.4999 14.3001 25.9999 14.7001 25.2999 14.8001C25.0999 14.8001 24.9999 14.9001 24.9999 15.1001C24.3999 17.7001 23.7999 20.3001 23.1999 22.9001C22.8999 24.3001 21.9999 25.1001 20.5999 25.4001C20.1999 25.5001 19.7999 25.5001 19.3999 25.5001C16.6999 25.5001 13.9999 25.5001 11.2999 25.5001C10.6999 25.5001 10.0999 25.4001 9.59988 25.1001C8.59988 24.6001 7.9999 23.8001 7.7999 22.7001C7.1999 20.1001 6.59988 17.5001 5.99988 15.0001C5.99988 14.8001 5.89989 14.7001 5.69989 14.7001C4.79989 14.6001 4.3999 14.1001 4.3999 13.2001C4.3999 12.9001 4.3999 12.6001 4.3999 12.3001C4.4999 11.6001 4.9999 11.2001 5.7999 11.2001C7.1999 11.2001 8.4999 11.2001 9.8999 11.2001C10.4999 11.2001 11.1999 11.2001 11.7999 11.2001C11.9999 11.4001 12.0999 11.4001 12.1999 11.3001ZM15.5999 12.1001C12.9999 12.1001 10.3999 12.1001 7.7999 12.1001C7.1999 12.1001 6.4999 12.1001 5.8999 12.1001C5.4999 12.1001 5.19989 12.3001 5.19989 12.7001C5.19989 13.0001 5.19989 13.3001 5.19989 13.6001C5.19989 14.0001 5.4999 14.2001 5.7999 14.2001C5.8999 14.2001 5.99988 14.2001 6.09988 14.2001C6.49988 14.2001 6.59988 14.3001 6.59988 14.6001C7.19988 17.4001 7.89988 20.1001 8.49988 22.9001C8.59988 23.3001 8.79988 23.7001 9.09988 24.1001C9.69988 24.7001 10.3999 25.0001 11.2999 25.0001C14.0999 25.0001 16.7999 25.0001 19.5999 25.0001C19.8999 25.0001 20.0999 25.0001 20.3999 24.9001C21.4999 24.7001 22.2999 24.0001 22.5999 22.9001C23.1999 20.2001 23.7999 17.6001 24.3999 14.9001C24.5999 14.1001 24.5999 14.2001 25.2999 14.2001C25.6999 14.2001 25.9999 14.0001 26.0999 13.6001C26.0999 13.4001 26.0999 13.2001 26.0999 13.0001C26.0999 12.3001 25.7999 12.1001 25.1999 12.1001C21.9999 12.1001 18.7999 12.1001 15.5999 12.1001ZM15.3999 11.4001C15.2999 11.3001 15.2999 11.3001 15.2999 11.2001C13.2999 9.60007 11.3999 8.00006 9.3999 6.30006C8.9999 6.00006 8.6999 6.00006 8.3999 6.40006C8.0999 6.70006 8.19988 7.10006 8.49988 7.40006C9.99988 8.70006 11.5999 10.0001 13.0999 11.2001C13.1999 11.3001 13.3999 11.3001 13.5999 11.4001C14.0999 11.4001 14.4999 11.4001 14.9999 11.4001C15.0999 11.4001 15.1999 11.4001 15.3999 11.4001Z" fill="white"/>
<path d="M12.1998 23.9C11.8998 23.8 11.5998 23.7 11.2998 23.6C10.9998 23.4 10.8998 23.1 10.7998 22.8C10.6998 21.9 10.5998 20.9 10.5998 20C10.4998 19 10.3998 18.1 10.2998 17.1C10.2998 16.8 10.2998 16.5 10.3998 16.2C10.3998 16.1 10.4998 16 10.5998 15.9C11.0998 15.6 11.6998 15.6 12.1998 15.8C12.6998 16 12.7998 16.4 12.8998 16.9C12.9998 18.1 13.0998 19.2 13.1998 20.4C13.2998 21.1 13.2998 21.9 13.3998 22.6C13.4998 23.4 12.8998 23.8 12.2998 23.7C12.2998 23.8 12.2998 23.8 12.1998 23.9ZM11.5998 16.4C11.4998 16.4 11.3998 16.4 11.2998 16.4C11.0998 16.4 10.9998 16.5 10.9998 16.7C10.9998 16.9 10.9998 17.1 10.9998 17.3C11.0998 18.3 11.1998 19.2 11.2998 20.2C11.3998 21 11.3998 21.7 11.4998 22.5C11.4998 22.9 11.6998 23 12.0998 23C12.1998 23 12.3998 23 12.4998 23C12.7998 23 12.7998 22.8 12.7998 22.6C12.7998 22.2 12.6998 21.8 12.6998 21.4C12.5998 19.9 12.3998 18.5 12.2998 17C12.2998 16.6 12.1998 16.4 11.5998 16.4Z" fill="white"/>
<path d="M18.9001 23.8001C18.7001 23.8001 18.5001 23.8001 18.3001 23.7001C17.9001 23.6001 17.6 23.2001 17.7 22.8001C17.7 22.2001 17.8001 21.6001 17.8001 20.9001C17.9001 20.2001 17.9 19.4001 18 18.7001C18.1 18.0001 18.1 17.3001 18.2 16.7001C18.2 16.2001 18.6 15.9001 19 15.8001C19.3 15.7001 19.6001 15.7001 19.9001 15.8001C20.5001 15.9001 20.8 16.4001 20.7 17.1001C20.6 18.4001 20.5001 19.6001 20.4001 20.9001C20.3001 21.5001 20.3 22.2001 20.2 22.8001C20.3 23.5001 19.8001 23.8001 18.9001 23.8001ZM19 23.2001C19.6 23.2001 19.7 23.1001 19.7 22.6001C19.7 22.5001 19.7 22.4001 19.7 22.3001C19.8 21.6001 19.8001 20.9001 19.9001 20.2001C20.0001 19.2001 20.1 18.2001 20.2 17.3001C20.2 16.6001 20.2 16.6001 19.5 16.6001C19.1 16.6001 18.9001 16.7001 18.9001 17.1001C18.8001 18.0001 18.7 19.0001 18.7 19.9001C18.6 20.8001 18.6 21.8001 18.5 22.7001C18.3 23.1001 18.4 23.2001 19 23.2001Z" fill="white"/>
<path d="M14.2998 19.8001C14.2998 18.8001 14.2998 17.8001 14.2998 16.9001C14.2998 16.4001 14.5998 16.0001 15.0998 15.9001C15.3998 15.8001 15.6998 15.8001 15.9998 15.9001C16.5998 16.0001 16.8998 16.4001 16.8998 17.0001C16.8998 18.9001 16.8998 20.9001 16.8998 22.8001C16.8998 23.5001 16.4998 23.9001 15.7998 23.9001C15.5998 23.9001 15.4998 23.9001 15.2998 23.9001C14.6998 23.9001 14.2998 23.5001 14.2998 22.9001C14.2998 21.8001 14.2998 20.8001 14.2998 19.8001ZM16.2998 19.8001C16.2998 18.9001 16.2998 18.0001 16.2998 17.1001C16.2998 17.0001 16.2998 16.8001 16.2998 16.7001C16.2998 16.5001 16.0998 16.4001 15.8998 16.4001C15.5998 16.4001 15.1998 16.2001 14.9998 16.6001C14.9998 16.7001 14.9998 16.7001 14.9998 16.8001C14.9998 16.9001 14.9998 17.0001 14.9998 17.1001C14.9998 18.9001 14.9998 20.6001 14.9998 22.4001C14.9998 22.5001 14.9998 22.7001 14.9998 22.8001C14.9998 22.9001 15.0998 23.0001 15.0998 23.0001C15.3998 23.0001 15.6998 23.1001 15.9998 23.0001C16.2998 22.9001 16.1998 22.6001 16.1998 22.4001C16.2998 21.6001 16.2998 20.7001 16.2998 19.8001Z" fill="white"/>
<path d="M16.7 14C16.7 14.6 16.2 15.1001 15.6 15.1001C15 15.1001 14.5 14.6 14.5 14C14.5 13.3 15 12.8 15.7 12.8C16.2 12.9 16.7 13.4 16.7 14ZM16.1 14C16.1 13.7 15.9 13.5 15.6 13.5C15.3 13.5 15.1 13.7 15.1 14C15.1 14.3 15.3 14.5 15.6 14.5C15.9 14.5 16.1 14.3 16.1 14Z" fill="white"/>
</svg>
