<svg width="32" height="32" viewBox="0 0 32 32" fill="none" xmlns="http://www.w3.org/2000/svg">
<path d="M15.6 31.2C24.2156 31.2 31.2 24.2156 31.2 15.6C31.2 6.98436 24.2156 0 15.6 0C6.98436 0 0 6.98436 0 15.6C0 24.2156 6.98436 31.2 15.6 31.2Z" fill="#61B8EE"/>
<path d="M16.2001 3.70003C16.6001 3.80003 17.0001 3.80002 17.4001 3.90002C17.9001 4.00002 18.3001 4.20003 18.8001 4.30003C19.0001 4.40003 19.3001 4.50003 19.5001 4.70003C20.1001 5.20003 20.8001 5.30003 21.6001 5.50003C21.9001 5.60003 22.2001 5.60003 22.5001 5.70003C23.6001 5.90003 24.2001 6.60003 24.6001 7.50003C25.2001 9.00003 25.8001 10.5 26.3001 12C26.4001 12.3 26.4001 12.5 26.0001 12.6C25.1001 13 24.2001 13.4 23.4001 13.7C23.1001 13.8 23.0001 13.8 22.8001 13.5C22.6001 13.2 22.5001 12.9 22.2001 12.6C22.1001 13.4 22.1001 14.1 22.0001 14.9C21.9001 17.1 21.8001 19.3 22.0001 21.5C22.1001 23.2 22.2001 25 22.4001 26.7C22.4001 27.3 22.5001 27.5 21.7001 27.5C17.6001 27.5 13.4001 27.5 9.30006 27.5C8.80006 27.5 8.70006 27.4 8.80006 26.9C8.90006 25.3 9.10008 23.6 9.10008 22C9.20008 19.7 9.20008 17.5 9.10008 15.2C9.00008 14.3 9.00007 13.4 8.90007 12.5C8.80007 12.6 8.80006 12.6 8.80006 12.7C8.60006 13 8.50006 13.3 8.30006 13.5C8.20006 13.7 8.00006 13.8 7.80006 13.7C6.90006 13.3 6.00008 12.9 5.10008 12.5C4.90008 12.4 4.80007 12.2 4.90007 11.9C5.40007 10.6 5.90007 9.30003 6.40007 8.00003C6.50007 7.70003 6.60006 7.40004 6.80006 7.10004C7.30006 6.10004 8.10006 5.50002 9.30006 5.40002C9.90006 5.30002 10.5001 5.10002 11.1001 4.90002C11.3001 4.80002 11.6001 4.70003 11.8001 4.50003C12.6001 3.90003 13.4001 3.70003 14.4001 3.50003C14.6001 3.50003 14.8001 3.40002 15.0001 3.40002C15.3001 3.70002 15.8001 3.70003 16.2001 3.70003ZM9.50007 26.8C13.6001 26.8 17.6001 26.8 21.6001 26.8C21.6001 26.7 21.6001 26.6 21.6001 26.5C21.5001 24.6 21.3001 22.7 21.2001 20.8C21.1001 18.5 21.1001 16.1 21.3001 13.8C21.4001 13 21.5001 12.1 21.6001 11.3C21.6001 11.1 21.8001 10.9 22.0001 11C22.1001 11 22.2001 11.2 22.3001 11.3C22.6001 11.9 22.9001 12.4 23.2001 13C23.9001 12.7 24.6001 12.4 25.4001 12.1C25.4001 12 25.4001 12 25.4001 12C24.9001 10.6 24.4001 9.20003 23.8001 7.80003C23.5001 7.10003 23.0001 6.50002 22.1001 6.40002C21.1001 6.20002 20.1001 6.10003 19.2001 5.50003C18.5001 7.20003 17.3001 8.20003 15.5001 8.20003C13.7001 8.20003 12.5001 7.20004 11.8001 5.60004C11.6001 5.70004 11.4001 5.80002 11.1001 5.90002C10.4001 6.10002 9.70007 6.30002 9.00007 6.40002C8.60007 6.50002 8.20007 6.60002 7.90007 6.90002C7.50007 7.20002 7.30008 7.60004 7.10008 8.10004C6.60008 9.40004 6.10008 10.7 5.60008 12C5.60008 12.1 5.50007 12.2 5.50007 12.3C6.20007 12.6 6.90006 12.9 7.70006 13.2L7.80006 13.1C8.10006 12.6 8.40006 12 8.70006 11.5C8.80006 11.3 8.90008 11.3 9.10008 11.3C9.30008 11.3 9.40007 11.5 9.40007 11.6C9.40007 11.8 9.50007 12.1 9.50007 12.3C9.60007 14.1 9.80006 15.8 9.80006 17.6C9.90006 20.1 9.80008 22.6 9.60008 25.1C9.60008 25.5 9.60007 26.2 9.50007 26.8ZM15.6001 7.50003C15.8001 7.50003 16.1001 7.40002 16.3001 7.40002C17.4001 7.10002 18.2001 6.50003 18.6001 5.30003C18.7001 5.10003 18.6001 5.00003 18.4001 5.00003C17.7001 4.70003 17.0001 4.60003 16.3001 4.50003C15.1001 4.40003 13.9001 4.50003 12.8001 5.00003C12.6001 5.10003 12.6001 5.20002 12.6001 5.40002C13.0001 6.50002 14.3001 7.50003 15.6001 7.50003Z" fill="white" stroke="white" stroke-width="0.25" stroke-miterlimit="10"/>
</svg>
