<svg width="99" height="58" viewBox="0 0 99 58" fill="none" xmlns="http://www.w3.org/2000/svg">
<path d="M0.11356 19.9172C0.722687 20.2165 1.23203 20.7188 1.73787 20.7154C2.44676 20.8116 2.8458 19.9996 3.04179 19.0877C3.6368 17.3637 3.92911 15.743 4.52412 14.0191C4.82339 13.41 4.92305 13.2069 5.42889 13.2035C6.13778 13.2997 6.74347 13.0933 7.45235 13.1895C7.35613 13.8984 7.05676 14.5074 6.96053 15.2162C5.97708 19.2697 4.58759 23.1238 3.80717 27.277C3.21568 29.5068 3.13 31.733 3.2474 34.0591C3.16882 37.297 3.29333 40.6347 3.21474 43.8726C3.23591 46.9074 4.76398 48.4144 7.59598 48.2937C9.61935 48.2797 11.6427 48.2657 13.463 48.152C13.9688 48.1485 14.3749 48.3481 14.3784 48.8539C15.5287 54.2078 19.8032 57.8204 25.0646 57.8852C30.123 57.8503 34.5477 53.9754 35.6239 48.7072C35.6203 48.2014 35.72 47.9984 36.3256 47.7919C46.9483 47.7185 57.5711 47.6452 68.094 47.7749L68.297 47.8747C68.5035 48.4803 68.6104 49.2889 68.817 49.8945C70.3698 54.9422 74.9435 57.9456 79.8986 57.6079C84.5509 57.3734 88.6728 53.6018 89.6492 48.5367C89.7454 47.8279 90.0481 47.7245 90.554 47.7211C91.7687 47.8138 93.0832 47.7037 94.6008 47.6932C97.13 47.6757 98.4339 46.0481 98.516 43.316C98.4243 30.1648 98.4358 17.3164 98.3441 4.16529C98.3264 1.63622 96.7983 0.129282 94.5719 0.0434793C94.3689 -0.056286 94.0661 0.0469094 94.0661 0.0469094C68.571 0.121717 43.0758 0.196511 17.2779 0.374576C15.5573 0.285284 13.8403 0.701818 12.6326 1.62066C11.1222 2.64276 9.8182 4.27047 9.42623 6.09419C9.13049 7.20908 8.73498 8.52694 8.33948 9.84485C6.82196 9.85532 5.50756 9.96564 4.08979 9.77309C3.07811 9.78008 2.37275 10.1896 2.07701 11.3045C1.48552 13.5343 0.591262 15.8672 -0.000223431 18.097C0.00683377 19.1086 0.110031 19.4114 0.11356 19.9172ZM6.29304 35.5556C6.79888 35.5521 7.10174 35.4488 7.30478 35.5486C9.53119 35.6344 11.6543 35.4174 13.8807 35.5032C15.3982 35.4927 16.6093 35.0797 17.817 34.1608C18.2196 33.8546 18.925 33.4451 19.6339 33.5413C29.2449 33.475 39.0589 33.5084 48.6699 33.4421C49.1758 33.4386 49.6816 33.4351 49.9844 33.3318C50.3869 33.0256 50.989 32.3132 50.7825 31.7076C50.7789 31.2018 50.2695 30.6995 49.6604 30.4002C49.4574 30.3004 48.9515 30.3039 48.6487 30.4072C40.3521 30.3633 31.956 30.5224 23.6595 30.4785C23.3567 30.5818 22.9505 30.3822 22.6477 30.4854C24.1547 28.9575 25.3588 27.5329 27.5853 27.6187C50.0453 27.5649 72.3023 27.4112 94.6626 27.5604C95.1685 27.5569 95.4713 27.4536 95.8774 27.6531C95.8844 28.6648 95.9913 29.4734 95.9984 30.485C95.4925 30.4885 95.1897 30.5918 94.7836 30.3923C82.1376 30.4796 69.7943 30.4636 57.1483 30.5509C56.6424 30.5544 56.4393 30.4545 56.1365 30.5578C55.3279 30.6645 55.0287 31.2737 54.9325 31.9825C54.8363 32.6914 55.2458 33.3966 55.9547 33.4929C56.3607 33.6925 56.6636 33.5892 57.1694 33.5857C69.8154 33.4984 82.1587 33.5144 94.8048 33.4271C95.3106 33.4236 95.6134 33.3204 96.1192 33.3169C96.0442 37.0606 96.0688 40.6013 96.0935 44.142C95.9973 44.8508 95.5948 45.1571 94.8859 45.0608C93.6711 44.968 92.3567 45.0783 91.1419 44.9855C90.433 44.8892 90.2301 44.7895 90.1233 43.9809C89.0763 38.9297 85.1046 35.2139 80.2457 34.8428C75.287 34.6747 70.7556 37.741 69.2734 42.8096C68.9741 43.4187 68.8779 44.1275 68.7817 44.8364C68.5787 44.7366 68.4789 44.9396 68.2758 44.8399C57.8562 45.0129 47.3333 44.8832 36.9136 45.0563C36.2047 44.96 36.0017 44.8603 35.8949 44.0517C34.8479 39.0005 30.4702 35.0852 25.7146 35.0169C20.5529 34.749 16.228 38.4208 14.9488 43.5892C14.7493 43.9953 14.7529 44.5011 14.5534 44.9072C12.733 45.0209 10.8094 44.8318 8.98908 44.9456C6.45987 44.963 6.45987 44.963 6.44223 42.434C6.12532 40.514 6.10764 37.9849 6.29304 35.5556ZM11.4779 10.1267C15.5246 10.0988 19.5713 10.0709 23.6181 10.0429C23.7531 14.8981 23.6851 19.6534 23.6171 24.4088C23.5173 24.6118 23.5209 25.1176 23.2181 25.2208C20.703 27.2615 18.2911 29.605 15.776 31.6457C15.2737 32.1551 14.3653 32.4648 13.5567 32.5715C11.2305 32.6888 9.00418 32.603 6.77777 32.5172C6.57473 32.4175 6.2719 32.5207 5.86582 32.3211C6.92434 24.5239 9.91003 17.4216 11.4779 10.1267ZM12.5682 6.88183C12.6679 6.67881 12.6679 6.6788 12.6679 6.6788C12.7677 6.47577 12.7677 6.47581 12.8674 6.27279C13.9683 4.54534 15.785 3.92572 17.5056 4.01501C43.0007 3.94021 68.2928 3.76564 93.7879 3.69084C94.0907 3.58758 94.5966 3.58415 94.7996 3.68392C95.0027 3.78368 95.6118 4.08291 95.4122 4.48896C95.6188 5.09454 95.5226 5.80343 95.4264 6.51227C67.9079 6.60104 40.2897 6.89283 12.5682 6.88183ZM44.8634 9.89624C45.8751 9.88925 46.5839 9.98553 47.3926 9.87878C47.3246 14.6341 47.4597 19.4893 47.3917 24.2447C46.5831 24.3514 45.8741 24.2551 45.0655 24.3619L44.9623 24.0591C44.9552 23.0475 44.9481 22.0358 44.8413 21.2272C44.934 20.0125 44.3214 19.2074 43.5127 19.3142C42.5011 19.3212 41.9987 19.8305 42.0093 21.3479C42.0164 22.3595 42.0233 23.3712 42.0304 24.3828C38.6926 24.507 35.4545 24.4282 32.2165 24.3494C32.0814 19.4943 32.1493 14.7389 32.2173 9.98352C35.4554 10.0623 38.7933 9.93817 42.0314 10.017C41.9387 11.2316 41.9458 12.2433 42.1559 13.3547C42.0632 14.5694 42.7755 15.1714 43.4844 15.2677C44.293 15.1609 44.8951 14.4486 44.8881 13.437C44.7777 12.1226 44.7707 11.1109 44.8634 9.89624ZM60.0386 9.79149C59.9706 14.5468 60.1057 19.402 60.0377 24.1574C56.7996 24.0786 53.4618 24.2027 50.2237 24.1239C50.0886 19.2688 50.1566 14.5135 50.2246 9.75815C53.6658 9.93673 56.7008 9.9157 60.0386 9.79149ZM68.5382 9.93524C71.7763 10.0141 75.1142 9.88982 78.3523 9.96864C78.2843 14.724 78.4193 19.5791 78.3513 24.3345C75.1132 24.2556 71.7753 24.3798 68.5372 24.301C68.705 19.3426 68.5699 14.4876 68.5382 9.93524ZM86.7485 9.80954C89.7836 9.78859 92.6156 9.66786 95.5509 9.84993C95.4829 14.6053 95.6179 19.4604 95.5499 24.2157C92.5148 24.2367 89.6828 24.3574 86.7475 24.1753C86.9153 19.2169 86.8836 14.6647 86.7485 9.80954ZM17.0966 46.9129C17.1646 42.1576 20.4778 38.4927 25.0303 38.4613C29.2801 38.5331 32.949 42.3521 32.9807 46.9044C32.9127 51.6598 29.5996 55.3247 25.047 55.3561C20.5942 55.1845 17.1284 51.4652 17.0966 46.9129ZM79.1721 54.9826C74.8226 55.1137 71.1537 51.2947 71.2217 46.5394C71.1899 41.9871 74.6029 38.1191 79.1555 38.0877C83.505 37.9565 87.1738 41.7756 87.1058 46.5309C87.1376 51.0832 83.7247 54.9511 79.1721 54.9826ZM83.7134 9.83049C83.8485 14.6856 83.7805 19.4409 83.7125 24.1962C82.9038 24.303 81.9919 24.107 81.1833 24.2137C81.2513 19.4584 81.1162 14.6033 81.1842 9.84795C82.1959 9.84097 83.0045 9.73422 83.7134 9.83049ZM26.6522 24.3878C26.5171 19.5327 26.5852 14.7773 26.6532 10.022C27.4618 9.91524 28.3737 10.1113 29.1824 10.0045C29.1144 14.7599 29.2494 19.615 29.1814 24.3703C28.3727 24.4771 27.6638 24.3808 26.6522 24.3878ZM65.6029 9.75315C65.5349 14.5085 65.6699 19.3636 65.6019 24.1189C64.7933 24.2257 64.0844 24.1294 63.0727 24.1364C63.1407 19.381 63.0057 14.526 63.0737 9.77061C64.0853 9.76362 64.7942 9.8599 65.6029 9.75315Z" fill="#2563EB"/>
</svg>
