<svg width="128" height="121" viewBox="0 0 128 121" fill="none" xmlns="http://www.w3.org/2000/svg">
<path d="M12.5315 54.6666C13.1407 54.9659 13.65 55.4682 14.1558 55.4647C14.8647 55.561 15.2638 54.7489 15.4598 53.837C16.0548 52.1131 16.3471 50.4924 16.9421 48.7684C17.2414 48.1593 17.341 47.9563 17.8469 47.9528C18.5557 48.0491 19.1614 47.8426 19.8703 47.9389C19.7741 48.6477 19.4747 49.2567 19.3785 49.9656C18.395 54.019 17.0056 57.8731 16.2251 62.0263C15.6337 64.2561 15.548 66.4824 15.6654 68.8084C15.5868 72.0463 15.7113 75.384 15.6327 78.6219C15.6539 81.6568 17.1819 83.1637 20.014 83.043C22.0373 83.029 24.0606 83.0151 25.881 82.9013C26.3868 82.8978 26.7929 83.0974 26.7964 83.6032C27.9467 88.9571 32.2211 92.5697 37.4826 92.6345C42.541 92.5996 46.9657 88.7247 48.0418 83.4566C48.0383 82.9508 48.138 82.7477 48.7436 82.5412C59.3663 82.4679 69.989 82.3946 80.5119 82.5243L80.7149 82.624C80.9215 83.2296 81.0284 84.0383 81.235 84.6438C82.7878 89.6915 87.3614 92.6949 92.3166 92.3572C96.9689 92.1228 101.091 88.3511 102.067 83.286C102.163 82.5772 102.466 82.4739 102.972 82.4704C104.187 82.5632 105.501 82.453 107.019 82.4425C109.548 82.4251 110.852 80.7974 110.934 78.0653C110.842 64.9141 110.854 52.0658 110.762 38.9146C110.744 36.3855 109.216 34.8786 106.99 34.7928C106.787 34.693 106.484 34.7962 106.484 34.7962C80.9889 34.871 55.4937 34.9458 29.6958 35.1239C27.9753 35.0346 26.2583 35.4511 25.0506 36.37C23.5401 37.3921 22.2362 39.0198 21.8442 40.8435C21.5485 41.9584 21.153 43.2763 20.7575 44.5942C19.2399 44.6046 17.9255 44.715 16.5078 44.5224C15.4961 44.5294 14.7907 44.9389 14.495 46.0538C13.9035 48.2836 13.0092 50.6166 12.4177 52.8463C12.4248 53.858 12.528 54.1608 12.5315 54.6666ZM18.711 70.3049C19.2168 70.3014 19.5197 70.1981 19.7228 70.2979C21.9492 70.3837 24.0722 70.1667 26.2986 70.2525C27.8162 70.242 29.0273 69.829 30.235 68.9102C30.6375 68.6039 31.343 68.1944 32.0519 68.2907C41.6628 68.2243 51.4769 68.2577 61.0879 68.1914C61.5937 68.1879 62.0996 68.1844 62.4024 68.0812C62.8049 67.7749 63.407 67.0625 63.2004 66.4569C63.1969 65.9511 62.6875 65.4488 62.0784 65.1495C61.8753 65.0498 61.3694 65.0533 61.0666 65.1565C52.7701 65.1126 44.3739 65.2717 36.0774 65.2278C35.7746 65.3311 35.3685 65.1315 35.0657 65.2348C36.5726 63.7069 37.7768 62.2823 40.0032 62.3681C62.4633 62.3142 84.7203 62.1605 107.081 62.3097C107.586 62.3062 107.889 62.2029 108.295 62.4025C108.302 63.4141 108.409 64.2228 108.416 65.2344C107.91 65.2379 107.608 65.3412 107.202 65.1416C94.5555 65.2289 82.2123 65.2129 69.5662 65.3002C69.0604 65.3037 68.8573 65.2039 68.5545 65.3071C67.7459 65.4139 67.4467 66.023 67.3505 66.7319C67.2542 67.4407 67.6637 68.146 68.3726 68.2422C68.7787 68.4418 69.0815 68.3385 69.5874 68.335C82.2334 68.2477 94.5767 68.2637 107.223 68.1764C107.729 68.1729 108.031 68.0697 108.537 68.0662C108.462 71.8099 108.487 75.3506 108.511 78.8913C108.415 79.6001 108.013 79.9064 107.304 79.8102C106.089 79.7174 104.775 79.8276 103.56 79.7349C102.851 79.6386 102.648 79.5388 102.541 78.7302C101.494 73.6791 97.5226 69.9632 92.6637 69.5921C87.705 69.424 83.1736 72.4903 81.6914 77.559C81.3921 78.168 81.2959 78.8769 81.1997 79.5857C80.9966 79.4859 80.8968 79.689 80.6938 79.5892C70.2742 79.7623 59.7512 79.6325 49.3316 79.8056C48.6227 79.7093 48.4197 79.6096 48.3129 78.801C47.2659 73.7499 42.8882 69.8345 38.1326 69.7662C32.9709 69.4983 28.646 73.1702 27.3668 78.3385C27.1673 78.7446 27.1709 79.2505 26.9713 79.6565C25.151 79.7702 23.2274 79.5812 21.407 79.6949C18.8778 79.7124 18.8778 79.7124 18.8602 77.1833C18.5433 75.2633 18.5256 72.7342 18.711 70.3049ZM23.8959 44.8761C27.9426 44.8481 31.9893 44.8202 36.0361 44.7923C36.1711 49.6474 36.1031 54.4027 36.035 59.1581C35.9353 59.3611 35.9388 59.8669 35.636 59.9702C33.1209 62.0109 30.7091 64.3544 28.194 66.3951C27.6917 66.9044 26.7833 67.2141 25.9746 67.3209C23.6485 67.4381 21.4221 67.3524 19.1957 67.2666C18.9927 67.1668 18.6899 67.27 18.2838 67.0705C19.3423 59.2733 22.328 52.171 23.8959 44.8761ZM24.9861 41.6312C25.0859 41.4281 25.0859 41.4281 25.0859 41.4281C25.1857 41.2251 25.1856 41.2251 25.2854 41.0221C26.3862 39.2947 28.203 38.6751 29.9236 38.7643C55.4187 38.6895 80.7108 38.515 106.206 38.4402C106.509 38.3369 107.015 38.3335 107.218 38.4332C107.421 38.533 108.03 38.8322 107.83 39.2383C108.037 39.8439 107.941 40.5528 107.844 41.2616C80.3259 41.3504 52.7077 41.6422 24.9861 41.6312ZM57.2813 44.6456C58.293 44.6386 59.0019 44.7349 59.8105 44.6281C59.7425 49.3835 59.8777 54.2386 59.8097 58.994C59.001 59.1007 58.2921 59.0044 57.4835 59.1112L57.3802 58.8084C57.3732 57.7968 57.366 56.7851 57.2592 55.9765C57.3519 54.7619 56.7393 53.9568 55.9307 54.0635C54.919 54.0705 54.4167 54.5798 54.4273 56.0973C54.4343 57.1089 54.4413 58.1205 54.4484 59.1321C51.1105 59.2563 47.8725 59.1775 44.6344 59.0987C44.4994 54.2436 44.5673 49.4882 44.6353 44.7329C47.8734 44.8117 51.2113 44.6875 54.4494 44.7663C54.3567 45.981 54.3637 46.9926 54.5738 48.104C54.4811 49.3187 55.1935 49.9207 55.9024 50.017C56.711 49.9103 57.3131 49.1979 57.306 48.1863C57.1957 46.8719 57.1886 45.8602 57.2813 44.6456ZM72.4566 44.5408C72.3886 49.2962 72.5237 54.1514 72.4557 58.9067C69.2176 58.8279 65.8797 58.9521 62.6416 58.8732C62.5066 54.0181 62.5746 49.2628 62.6426 44.5075C66.0837 44.6861 69.1187 44.665 72.4566 44.5408ZM80.9562 44.6846C84.1943 44.7634 87.5322 44.6392 90.7703 44.718C90.7023 49.4733 90.8373 54.3284 90.7693 59.0838C87.5312 59.005 84.1933 59.1291 80.9552 59.0503C81.1229 54.0919 80.9879 49.2369 80.9562 44.6846ZM99.1665 44.5589C102.202 44.5379 105.034 44.4172 107.969 44.5993C107.901 49.3546 108.036 54.2097 107.968 58.9651C104.933 58.986 102.101 59.1067 99.1655 58.9246C99.3333 53.9663 99.3015 49.414 99.1665 44.5589ZM29.5146 81.6622C29.5826 76.9069 32.8957 73.242 37.4483 73.2106C41.6981 73.2824 45.367 77.1014 45.3987 81.6538C45.3307 86.4091 42.0175 90.074 37.465 90.1055C33.0121 89.9339 29.5463 86.2146 29.5146 81.6622ZM91.5901 89.7319C87.2405 89.8631 83.5717 86.0441 83.6397 81.2887C83.6079 76.7364 87.0208 72.8684 91.5734 72.837C95.923 72.7058 99.5918 76.5249 99.5238 81.2802C99.5555 85.8325 96.1426 89.7005 91.5901 89.7319ZM96.1314 44.5798C96.2664 49.4349 96.1984 54.1902 96.1304 58.9456C95.3218 59.0523 94.4099 58.8563 93.6012 58.963C93.6692 54.2077 93.5342 49.3526 93.6022 44.5973C94.6139 44.5903 95.4225 44.4835 96.1314 44.5798ZM39.0701 59.1371C38.9351 54.282 39.0031 49.5267 39.0711 44.7713C39.8798 44.6646 40.7917 44.8606 41.6003 44.7539C41.5323 49.5092 41.6673 54.3643 41.5993 59.1197C40.7907 59.2264 40.0818 59.1302 39.0701 59.1371ZM78.0208 44.5025C77.9528 49.2578 78.0879 54.1129 78.0199 58.8682C77.2112 58.975 76.5023 58.8787 75.4907 58.8857C75.5587 54.1303 75.4236 49.2753 75.4916 44.5199C76.5033 44.513 77.2122 44.6092 78.0208 44.5025Z" fill="#FF0000"/>
<path d="M37.4509 88.0822C40.7887 87.958 43.6031 85.3083 43.6782 81.5646C43.6535 78.0239 40.9 74.9067 37.5622 75.0309C34.2243 75.1551 31.5132 78.1076 31.5379 81.6483C31.2598 85.2923 33.91 88.1067 37.4509 88.0822ZM34.0671 81.6308C33.9532 79.8106 35.56 78.0797 37.2805 78.169C39.0011 78.2583 40.5292 79.7653 40.6431 81.5855C40.7569 83.4057 39.1502 85.1366 37.4296 85.0474C35.709 84.9581 34.1809 83.4511 34.0671 81.6308Z" fill="#FF0000"/>
<path d="M91.7787 87.8083C95.1166 87.6841 97.8276 84.7315 97.8029 81.1908C97.7782 77.6501 94.925 74.7359 91.6869 74.6571C88.3491 74.7813 85.435 77.6341 85.6628 81.2746C85.5877 85.0183 88.2378 87.8328 91.7787 87.8083ZM91.7575 84.7734C89.9372 84.8871 88.5088 83.1771 88.395 81.3569C88.2811 79.5366 89.8879 77.8057 91.6084 77.895C93.4288 77.7813 94.8571 79.4913 94.971 81.3115C94.782 83.235 93.4781 84.8627 91.7575 84.7734Z" fill="#FF0000"/>
</svg>
