<svg width="75" height="108" viewBox="0 0 75 108" fill="none" xmlns="http://www.w3.org/2000/svg">
<path d="M33.4012 73.8458C31.168 76.2646 29.0218 78.5668 26.9337 80.869C26.6726 81.1604 26.5566 81.5684 26.4116 81.9473C23.7724 88.9413 21.1622 95.9645 18.494 102.959C17.2469 106.281 14.2307 108.204 10.8664 107.971C7.61812 107.738 4.7759 105.377 4.16685 102.084C3.93483 100.773 3.96383 99.2576 4.39887 98.0336C7.2701 90.0779 10.2863 82.1512 13.3026 74.2538C13.6216 73.4378 14.1726 72.651 14.7527 71.9807C19.016 67.2014 23.3084 62.4804 27.5427 57.672C27.9197 57.2349 28.1808 56.5355 28.2098 55.9526C28.2968 53.6796 28.2388 51.3774 28.2388 48.9586C28.0068 49.046 27.8327 49.0751 27.7747 49.1626C26.7017 50.6488 25.0775 51.1151 23.4244 51.5522C18.639 52.8053 13.8536 54.1458 9.06824 55.4281C3.81882 56.856 -0.647537 53.155 0.0775211 47.9678C0.483554 45.0536 2.2817 43.2176 5.09492 42.4016C9.41627 41.1485 13.7376 39.9537 18.03 38.7006C18.61 38.5258 19.2191 38.1761 19.6541 37.7389C23.1924 34.1545 26.7017 30.4826 30.2109 26.869C33.5462 23.4302 37.2585 22.7308 41.4348 25.0622C48.5984 29.0546 55.646 33.2219 62.7225 37.331C65.7388 39.0795 68.755 40.7988 71.7423 42.6056C74.2075 44.0919 75.3965 46.8021 74.8455 49.6288C74.2945 52.4265 72.6123 54.2333 69.8571 54.9618C67.943 55.4864 66.1448 55.0784 64.4337 54.0876C58.5462 50.6488 52.6587 47.2392 46.7423 43.8296C46.3652 43.6256 46.0172 43.4216 45.4952 43.1302C45.4952 43.6548 45.4952 44.0336 45.4952 44.3833C45.4952 47.8512 45.6692 51.3191 45.4372 54.7578C45.1471 59.2165 45.8432 63.5004 47.0903 67.726C47.3223 68.4837 47.5253 69.2705 47.6703 70.0573C48.2504 73.263 49.5265 76.0897 51.2956 78.8291C55.0079 84.6574 58.5752 90.5733 62.1425 96.4599C64.9847 101.152 62.4615 106.834 57.1541 107.854C54.1959 108.437 51.2086 107.009 49.4395 104.124C45.8722 98.3542 42.3339 92.5549 38.7666 86.7557C38.6796 86.61 38.5926 86.4351 38.4766 86.2894C35.9244 82.7632 34.2133 78.8873 33.5172 74.5743C33.6042 74.3995 33.5172 74.2246 33.4012 73.8458ZM42.5369 49.5414C42.5369 46.6564 42.5369 43.8005 42.5369 40.9154C42.5369 39.0503 43.639 38.4383 45.2631 39.3709C48.4534 41.2068 51.6437 43.0719 54.8629 44.937C58.6912 47.1518 62.5195 49.3666 66.3478 51.5814C67.7399 52.3682 69.132 52.339 70.4371 51.4065C71.7423 50.474 72.2063 49.1334 71.9163 47.5598C71.6842 46.2775 70.8142 45.4907 69.7411 44.8496C63.7666 41.4108 57.8211 37.9429 51.8757 34.5042C47.7863 32.1437 43.726 29.7832 39.6077 27.481C37.8385 26.4902 35.9824 26.5484 34.2133 27.5393C32.1541 28.7049 31.342 30.5992 31.342 32.9305C31.371 40.828 31.342 48.7254 31.371 56.6229C31.371 57.6429 31.081 58.4006 30.3849 59.1583C27.3687 62.4513 24.5265 65.9483 21.3652 69.0957C17.7399 72.7093 15.2747 76.8766 13.6796 81.7724C11.8235 87.4551 9.50328 92.992 7.41511 98.6164C6.22601 101.851 8.40119 105.057 11.6784 104.882C13.7376 104.765 15.0717 103.6 15.7678 101.676C17.7979 96.2268 20.0021 90.8355 21.8583 85.3277C23.2214 81.3061 25.0485 77.7217 28.2678 74.924C28.7898 74.4578 29.2249 73.9041 29.6889 73.4087C33.4592 69.3288 37.2295 65.2198 41.0288 61.169C42.1309 60.0034 42.7109 58.7503 42.6529 57.0892C42.4499 54.583 42.5369 52.0476 42.5369 49.5414ZM43.001 63.4421C40.6228 66.0066 38.4186 68.338 36.2724 70.7567C36.0694 70.9899 36.0404 71.4853 36.0984 71.835C36.9685 76.6726 38.4476 81.277 41.4928 85.2403C41.5508 85.2986 41.5798 85.3569 41.6088 85.4151C45.1181 91.1561 48.6274 96.8679 52.1367 102.609C53.2388 104.416 55.0949 105.232 56.9511 104.765C59.9963 104.008 61.2724 100.773 59.5613 97.9462C55.472 91.2144 51.2956 84.5117 47.2353 77.7508C46.5102 76.5268 45.9592 75.1572 45.5822 73.7875C44.6831 70.4653 43.9 67.0849 43.001 63.4421ZM28.2968 33.9505C26.0926 35.9904 23.8594 38.1178 21.5682 40.1869C20.9592 40.7406 20.1761 41.2651 19.3931 41.4982C15.0137 42.8096 10.6344 43.9753 6.25502 45.2867C5.38495 45.549 4.51488 46.0735 3.90583 46.7147C2.80374 47.8803 2.83274 49.7454 3.70281 51.0859C4.60188 52.4556 6.19701 53.0676 7.90815 52.6013C13.2446 51.1734 18.581 49.7163 23.9174 48.23C24.3525 48.1135 24.7295 47.822 25.1065 47.5306C27.6877 45.6655 28.7608 43.2176 28.3548 39.9537C28.0648 37.8846 28.2968 35.7573 28.2968 33.9505Z" fill="#22C55E"/>
<path d="M23.9755 10.3164C23.9465 4.66285 28.4998 0.0292795 34.1553 0.000137574C39.7817 -0.0290044 44.3641 4.57542 44.4221 10.229C44.4511 15.8533 39.8397 20.5161 34.2423 20.5452C28.5868 20.5743 24.0045 15.9991 23.9755 10.3164ZM27.0207 10.2581C27.0207 14.2505 30.211 17.4853 34.1553 17.4853C38.0996 17.4853 41.3479 14.2505 41.3769 10.2872C41.4059 6.32394 38.1576 3.06004 34.2133 3.06004C30.24 3.06004 27.0207 6.26565 27.0207 10.2581Z" fill="#22C55E"/>
</svg>
