<svg width="102" height="81" viewBox="0 0 102 81" fill="none" xmlns="http://www.w3.org/2000/svg">
<path d="M100.091 33.3377C100.097 33.0893 99.8485 33.0829 99.8549 32.8345C98.9375 29.828 96.504 27.777 93.268 27.9426C86.3052 28.0128 79.5909 28.0893 72.6346 27.9111C68.908 27.8156 64.9266 27.9621 60.9515 27.8603C61.2063 27.6182 61.2127 27.3698 61.4675 27.1277C62.7542 25.4206 64.041 23.7135 65.3341 21.758C66.6209 20.0509 66.6273 19.8025 65.4232 18.2802C63.9835 16.2546 62.5375 14.4775 60.8557 12.1972C61.3526 12.2099 61.601 12.2163 62.0979 12.229C67.8184 12.127 73.781 12.2798 79.5015 12.1778C80.9921 12.216 81.2533 11.7256 81.2851 10.4835C81.3424 8.2477 81.3997 6.01193 81.2149 3.52138C81.2468 2.27929 80.7562 2.01816 79.7625 1.9927C62.1104 2.03752 44.4584 2.08231 27.0548 2.1335C26.0611 2.10803 25.5514 2.59215 25.526 3.58582C25.4687 5.82159 25.6535 8.31214 25.5962 10.5479C25.5644 11.79 26.0485 12.2996 27.2907 12.3314C34.005 12.2549 40.7129 12.4268 47.1787 12.3439C47.924 12.363 48.4145 12.6241 48.6502 13.1273C50.5805 15.414 52.7592 17.7071 54.683 20.2422C54.1734 20.7263 53.6574 21.4588 53.1478 21.9429C51.6062 23.892 50.0711 25.5928 48.5295 27.5419C48.0199 28.026 47.5166 28.2617 47.0197 28.249C36.082 28.2173 25.1442 28.1856 14.2 28.4023C12.9578 28.3704 12.4482 28.8546 11.9259 29.8355C8.25037 37.4473 4.5749 45.0592 0.899381 52.671C0.638208 53.1615 0.625462 53.6583 0.61273 54.1551C1.72125 59.4038 2.83614 64.404 3.94466 69.6526C4.16127 70.901 4.64539 71.4106 5.89396 71.194C6.63928 71.2131 7.63306 71.2386 8.62683 71.264C9.06005 73.761 10.2577 75.5317 12.207 77.0732C13.6722 78.105 15.3986 78.6464 17.144 78.4426C21.1254 78.296 23.9283 75.6335 25.0367 71.1874C26.0304 71.2129 27.0242 71.2383 27.7695 71.2574C28.7633 71.2829 29.757 71.3084 30.7508 71.3338C31.184 73.8307 32.3753 75.8499 34.5794 77.1493C36.0446 78.1812 37.7773 78.4742 39.5164 78.5187C43.2494 78.3658 45.7975 75.9453 47.1606 71.2572C49.1482 71.3081 51.3841 71.3654 53.378 71.1679C54.9898 76.1808 57.6654 78.4866 61.8952 78.3465C65.8766 78.1999 68.6732 75.7858 69.7815 71.3397C71.769 71.3906 73.5081 71.4352 75.502 71.2377C75.9416 73.4862 77.1329 75.5054 79.0885 76.7984C80.5537 77.8303 82.2801 78.3717 84.0255 78.1678C87.7585 78.0149 90.5487 75.8491 91.9182 70.9126C92.6635 70.9317 93.4088 70.9508 94.1605 70.7215C96.9061 70.2947 98.9382 68.6067 99.5051 65.8869C99.5115 65.6384 99.5115 65.6384 99.7663 65.3964C100.04 54.7144 100.065 44.026 100.091 33.3377ZM31.5463 30.5869C31.5145 31.829 31.4827 33.0711 31.4508 34.3132C31.419 35.5553 31.6611 35.81 32.9033 35.8418C46.5803 35.6952 60.0025 35.7905 73.6794 35.6439C74.9216 35.6757 75.4249 35.44 75.2147 33.9431C75.2465 32.701 75.2783 31.459 75.3038 30.4653C81.2727 30.3697 86.9869 30.5161 92.9558 30.4204C95.4402 30.4841 97.3768 32.5224 97.5616 35.0129C97.5873 43.7139 97.6193 52.1666 97.6449 60.8676C97.6386 61.116 97.6322 61.3644 97.6195 61.8612C66.5389 62.0591 35.7131 62.0149 4.88093 62.2191C4.45407 59.4738 3.77245 56.9705 3.3456 54.2252C3.35833 53.7283 3.37106 53.2315 3.38379 52.7347C6.79813 45.6133 10.2124 38.492 13.3783 31.3642C13.6395 30.8738 13.8943 30.6317 14.6396 30.6508C19.8569 30.7845 25.0805 30.6698 30.3041 30.5551C30.801 30.5678 31.0495 30.5742 31.5463 30.5869ZM97.8106 64.1033C97.8042 64.3517 97.8042 64.3518 97.8042 64.3518C97.7405 66.8359 95.9569 68.5303 93.2241 68.4603C64.6343 68.4734 36.0381 68.7349 7.44828 68.748C7.19984 68.7417 6.70297 68.7289 6.45453 68.7226C6.24429 67.2257 5.78562 65.7224 5.57537 64.2256C36.4011 64.2697 66.9784 64.3076 97.8106 64.1033ZM27.7365 4.63678C44.8916 4.57923 61.7984 4.51533 78.9535 4.45778C78.9026 6.44513 78.8581 8.18405 79.0619 9.92934C61.9068 9.98689 45 10.0508 27.8449 10.1083C27.8894 8.36941 27.9404 6.38207 27.7365 4.63678ZM73.2463 33.1469C60.0662 33.3064 46.8924 33.2174 33.9671 33.1347C33.9925 32.1411 34.0116 31.3958 34.0371 30.4021C47.2108 30.4911 60.1425 30.3254 73.3163 30.4144C73.2908 31.408 73.2654 32.4017 73.2463 33.1469ZM63.8754 20.4777C62.079 22.6689 60.5311 24.8665 58.7347 27.0577C57.9639 28.0323 57.4606 28.268 56.2184 28.2361C54.4794 28.1916 52.7402 28.147 50.7463 28.3445C52.7975 25.9112 54.8423 23.7264 56.6387 21.5352C57.4095 20.5606 57.4158 20.3122 56.6896 19.5478C55.0015 17.5159 53.0649 15.4777 51.3767 13.4458C51.1347 13.191 51.1346 13.191 50.8989 12.6878C53.1349 12.7451 55.1288 12.5476 57.3648 12.6049C57.6132 12.6113 58.1037 12.8724 58.3458 13.1272C60.0276 15.4075 61.9579 17.6942 63.8754 20.4777ZM89.6822 70.8553C89.3638 73.5816 86.822 75.7537 84.0892 75.6836C81.3563 75.6136 78.6744 73.5562 78.2476 70.8109C82.2226 70.9128 85.9493 71.0082 89.6822 70.8553ZM44.9247 71.1999C44.3514 74.1682 41.8161 76.0919 38.8348 76.0155C36.1019 75.9454 33.6748 73.646 33.49 71.1554C37.223 71.0025 41.1981 71.1044 44.9247 71.1999ZM22.5523 71.1237C21.979 74.092 19.4437 76.0157 16.4624 75.9393C13.7295 75.8693 11.3024 73.5699 11.1176 71.0793C15.0927 71.1812 18.8193 71.2767 22.5523 71.1237ZM67.5519 71.034C66.9787 74.0023 64.4369 76.1744 61.462 75.8495C58.9776 75.7859 56.3084 73.2317 56.1173 70.9895C59.8439 71.085 63.5769 70.9321 67.5519 71.034Z" fill="#FF0000"/>
<path d="M48.9567 49.6766C49.0013 47.9377 49.0395 46.4472 48.8356 44.7019C48.8738 43.2114 47.8991 42.4406 46.4085 42.4024C43.1787 42.3196 39.9426 42.4853 36.7129 42.4026C34.9738 42.358 34.203 43.3325 34.1585 45.0715C34.0757 48.3009 34.2414 51.5367 34.1587 54.7662C34.1205 56.2567 35.0888 57.2758 36.5794 57.314C39.8091 57.3968 43.0452 57.2311 46.5234 57.3202C48.0141 57.3584 48.7848 56.3839 48.823 54.8933C49.1224 52.9124 49.1606 51.4219 48.9567 49.6766ZM36.6556 44.6383C39.8853 44.7211 43.3699 44.5618 46.5996 44.6446C46.5105 48.1224 46.6762 51.3582 46.5871 54.8361C43.1089 54.7469 39.8728 54.9126 36.6431 54.8298C36.7322 51.352 36.5729 47.8677 36.6556 44.6383Z" fill="#FF0000"/>
<path d="M69.3415 49.7018C69.3033 51.1923 69.2587 52.9313 69.469 54.4281C69.4244 56.1671 70.3991 56.9378 71.8897 56.976C75.1194 57.0588 78.3556 56.8931 81.5853 56.9758C83.3244 57.0204 84.0952 56.0458 84.1334 54.5553C84.2162 51.3259 84.0505 48.0901 84.1332 44.8607C84.1778 43.1217 83.2031 42.351 81.464 42.3065C78.2343 42.2237 75.2466 42.3957 72.0169 42.3129C70.2778 42.2684 69.507 43.243 69.4625 44.9819C69.1758 46.466 69.1313 48.2049 69.3415 49.7018ZM71.7112 44.5423C74.9409 44.6251 78.177 44.4594 81.4067 44.5422C81.3176 48.0201 81.4833 51.2559 81.3942 54.7337C78.1644 54.651 74.9284 54.8166 71.6986 54.7338C71.5393 51.2496 71.6284 47.7718 71.7112 44.5423Z" fill="#FF0000"/>
<path d="M17.1308 49.8553C17.0926 51.3458 17.048 53.0847 17.2583 54.5816C17.2137 56.3205 18.1884 57.0912 19.679 57.1294C22.9087 57.2122 26.1449 57.0466 29.3746 57.1293C30.8653 57.1675 31.8845 56.1993 31.6742 54.7024C31.757 51.473 31.5913 48.2372 31.6741 45.0077C31.7186 43.2688 30.744 42.4981 29.2533 42.4599C26.0236 42.3771 23.036 42.5492 19.8062 42.4664C18.0671 42.4218 17.2963 43.3964 17.2518 45.1354C16.9651 46.6195 16.927 48.11 17.1308 49.8553ZM19.4879 54.8873C19.577 51.4095 19.4113 48.1736 19.5005 44.6958C22.7302 44.7786 25.9663 44.6129 29.196 44.6957C29.1069 48.1735 29.2726 51.4093 29.1835 54.8872C25.9537 54.8044 22.724 54.7217 19.4879 54.8873Z" fill="#FF0000"/>
<path d="M66.3603 49.6254C66.3985 48.1349 66.443 46.396 66.2328 44.8991C66.271 43.4086 65.3027 42.3895 63.812 42.3513C60.5823 42.2685 57.3462 42.4342 54.1165 42.3514C52.3774 42.3068 51.6066 43.2814 51.5684 44.7719C51.4856 48.0014 51.6513 51.2371 51.5686 54.4666C51.524 56.2055 52.4987 56.9762 54.2378 57.0208C57.4675 57.1036 60.4552 56.9315 63.6849 57.0143C65.424 57.0589 66.1948 56.0843 66.233 54.5938C66.2775 52.8548 66.3221 51.1159 66.3603 49.6254ZM64.0095 44.345C63.9204 47.8228 64.0798 51.307 63.997 54.5365C60.5188 54.4473 57.2827 54.613 54.053 54.5302C54.1421 51.0524 53.9764 47.8166 54.0655 44.3387C57.5437 44.4279 60.7734 44.5106 64.0095 44.345Z" fill="#FF0000"/>
</svg>
